<?xml version="1.0" encoding="UTF-8" standalone="no"?>
<!-- Created with Inkscape (http://www.inkscape.org/) -->

<svg
   xmlns:dc="http://purl.org/dc/elements/1.1/"
   xmlns:cc="http://creativecommons.org/ns#"
   xmlns:rdf="http://www.w3.org/1999/02/22-rdf-syntax-ns#"
   xmlns:svg="http://www.w3.org/2000/svg"
   xmlns="http://www.w3.org/2000/svg"
   xmlns:sodipodi="http://sodipodi.sourceforge.net/DTD/sodipodi-0.dtd"
   xmlns:inkscape="http://www.inkscape.org/namespaces/inkscape"
   version="1.1"
   id="svg2"
   width="1180"
   height="659"
   viewBox="0 0 1180 659"
   sodipodi:docname="Logo_dataiku_white.svg"
   inkscape:version="0.92.3 (2405546, 2018-03-11)">
  <metadata
     id="metadata8">
    <rdf:RDF>
      <cc:Work
         rdf:about="">
        <dc:format>image/svg+xml</dc:format>
        <dc:type
           rdf:resource="http://purl.org/dc/dcmitype/StillImage" />
        <dc:title></dc:title>
      </cc:Work>
    </rdf:RDF>
  </metadata>
  <defs
     id="defs6" />
  <sodipodi:namedview
     pagecolor="#ffffff"
     bordercolor="#666666"
     borderopacity="1"
     objecttolerance="10"
     gridtolerance="10"
     guidetolerance="10"
     inkscape:pageopacity="0"
     inkscape:pageshadow="2"
     inkscape:window-width="1373"
     inkscape:window-height="660"
     id="namedview4"
     showgrid="false"
     inkscape:zoom="0.50645584"
     inkscape:cx="546.35466"
     inkscape:cy="324.12462"
     inkscape:window-x="432"
     inkscape:window-y="272"
     inkscape:window-maximized="0"
     inkscape:current-layer="svg2" />
  <path
     style="color:#000000;clip-rule:nonzero;display:inline;overflow:visible;visibility:visible;opacity:1;isolation:auto;mix-blend-mode:normal;color-interpolation:sRGB;color-interpolation-filters:linearRGB;solid-color:#000000;solid-opacity:1;fill:#ffffff;fill-opacity:1;fill-rule:nonzero;stroke:none;stroke-width:0.1;stroke-linecap:square;stroke-linejoin:miter;stroke-miterlimit:4;stroke-dasharray:none;stroke-dashoffset:0;stroke-opacity:1;color-rendering:auto;image-rendering:auto;shape-rendering:auto;text-rendering:auto;enable-background:accumulate"
     id="path838"
     sodipodi:type="arc"
     sodipodi:cx="258.29449"
     sodipodi:cy="319.72672"
     sodipodi:rx="235.95551"
     sodipodi:ry="235.95551"
     sodipodi:start="0"
     sodipodi:end="6.2619796"
     sodipodi:open="true"
     d="M 494.25,319.72672 A 235.95551,235.95551 0 0 1 259.54539,555.6789 235.95551,235.95551 0 0 1 22.352252,322.22847 235.95551,235.95551 0 0 1 254.54195,83.801051 235.95551,235.95551 0 0 1 494.19695,314.72349" />
  <path
     inkscape:connector-curvature="0"
     id="path880"
     d="m 249.78919,579.25859 c 3.45905,-0.19583 8.85905,-0.19422 12,0.004 3.14094,0.19781 0.31081,0.35803 -6.28919,0.35606 -6.6,-0.002 -9.16987,-0.16382 -5.71081,-0.35965 z M 229.75,578.33772 c 0.6875,-0.27741 1.8125,-0.27741 2.5,0 0.6875,0.27741 0.125,0.50439 -1.25,0.50439 -1.375,0 -1.9375,-0.22698 -1.25,-0.50439 z m 50,0 c 0.6875,-0.27741 1.8125,-0.27741 2.5,0 0.6875,0.27741 0.125,0.50439 -1.25,0.50439 -1.375,0 -1.9375,-0.22698 -1.25,-0.50439 z m -57.41667,-1.00439 c 0.36667,-0.36666 0.96667,-0.36666 1.33334,0 C 224.03333,577.7 223.73333,578 223,578 c -0.73333,0 -1.03333,-0.3 -0.66667,-0.66667 z m 66,0 c 0.36667,-0.36666 0.96667,-0.36666 1.33334,0 C 290.03333,577.7 289.73333,578 289,578 c -0.73333,0 -1.03333,-0.3 -0.66667,-0.66667 z m -73.52083,-1.01644 c 0.72187,-0.28887 1.58437,-0.25335 1.91667,0.0789 0.33229,0.33229 -0.25834,0.56864 -1.3125,0.52522 -1.16495,-0.048 -1.4019,-0.28494 -0.60417,-0.60416 z m 81,0 c 0.72187,-0.28887 1.58438,-0.25335 1.91667,0.0789 0.33229,0.33229 -0.25834,0.56864 -1.3125,0.52522 -1.16495,-0.048 -1.4019,-0.28494 -0.60417,-0.60416 z m 5.52083,-0.98356 c 0.36667,-0.36666 0.96667,-0.36666 1.33334,0 C 303.03333,575.7 302.73333,576 302,576 c -0.73333,0 -1.03333,-0.3 -0.66667,-0.66667 z m -97.52083,-1.01644 c 0.72187,-0.28887 1.58437,-0.25335 1.91667,0.0789 0.33229,0.33229 -0.25834,0.56864 -1.3125,0.52522 -1.16495,-0.048 -1.4019,-0.28494 -0.60417,-0.60416 z m 103,0 c 0.72187,-0.28887 1.58438,-0.25335 1.91667,0.0789 0.33229,0.33229 -0.25834,0.56864 -1.3125,0.52522 -1.16495,-0.048 -1.4019,-0.28494 -0.60417,-0.60416 z m 8.52083,-1.98356 c 0.36667,-0.36666 0.96667,-0.36666 1.33334,0 C 317.03333,572.7 316.73333,573 316,573 c -0.73333,0 -1.03333,-0.3 -0.66667,-0.66667 z m -125,-1 c 0.36667,-0.36666 0.96667,-0.36666 1.33334,0 C 192.03333,571.7 191.73333,572 191,572 c -0.73333,0 -1.03333,-0.3 -0.66667,-0.66667 z m -7,-2 c 0.36667,-0.36666 0.96667,-0.36666 1.33334,0 C 185.03333,569.7 184.73333,570 184,570 c -0.73333,0 -1.03333,-0.3 -0.66667,-0.66667 z m 144,0 c 0.36667,-0.36666 0.96667,-0.36666 1.33334,0 C 329.03333,569.7 328.73333,570 328,570 c -0.73333,0 -1.03333,-0.3 -0.66667,-0.66667 z m 6,-2 c 0.36667,-0.36666 0.96667,-0.36666 1.33334,0 C 335.03333,567.7 334.73333,568 334,568 c -0.73333,0 -1.03333,-0.3 -0.66667,-0.66667 z m 597,0 c 0.36667,-0.36666 0.96667,-0.36666 1.33334,0 C 932.03333,567.7 931.73333,568 931,568 c -0.73333,0 -1.03333,-0.3 -0.66667,-0.66667 z m 5,0 c 0.36667,-0.36666 0.96667,-0.36666 1.33334,0 C 937.03333,567.7 936.73333,568 936,568 c -0.73333,0 -1.03333,-0.3 -0.66667,-0.66667 z m -593,-3 c 0.36667,-0.36666 0.96667,-0.36666 1.33334,0 C 344.03333,564.7 343.73333,565 343,565 c -0.73333,0 -1.03333,-0.3 -0.66667,-0.66667 z M 395.5,538 c 0.33992,-0.55 0.84303,-1 1.11803,-1 0.275,0 0.22189,0.45 -0.11803,1 -0.33992,0.55 -0.84303,1 -1.11803,1 -0.275,0 -0.22189,-0.45 0.11803,-1 z m 3,-2 c 0.33992,-0.55 0.84303,-1 1.11803,-1 0.275,0 0.22189,0.45 -0.11803,1 -0.33992,0.55 -0.84303,1 -1.11803,1 -0.275,0 -0.22189,-0.45 0.11803,-1 z m 3,-2 c 0.33992,-0.55 0.84303,-1 1.11803,-1 0.275,0 0.22189,0.45 -0.11803,1 -0.33992,0.55 -0.84303,1 -1.11803,1 -0.275,0 -0.22189,-0.45 0.11803,-1 z m -299.09549,-5.15451 c -0.44208,-0.7153 -0.27432,-0.88306 0.44098,-0.44098 1.15275,0.71244 1.54767,1.59549 0.71353,1.59549 -0.24254,0 -0.76207,-0.51953 -1.15451,-1.15451 z M 408.5,529 c 0.33992,-0.55 0.84303,-1 1.11803,-1 0.275,0 0.22189,0.45 -0.11803,1 -0.33992,0.55 -0.84303,1 -1.11803,1 -0.275,0 -0.22189,-0.45 0.11803,-1 z M 98.404508,525.84549 c -0.442079,-0.7153 -0.274316,-0.88306 0.440984,-0.44098 1.152752,0.71244 1.547668,1.59549 0.713525,1.59549 -0.242541,0 -0.762069,-0.51953 -1.154509,-1.15451 z m -5,-4 c -0.442079,-0.7153 -0.274316,-0.88306 0.440984,-0.44098 1.152752,0.71244 1.547665,1.59549 0.713525,1.59549 -0.242541,0 -0.762069,-0.51953 -1.154509,-1.15451 z M 417,522.62244 c 0,-0.20765 0.7875,-0.99515 1.75,-1.75 1.58606,-1.24387 1.62143,-1.2085 0.37756,0.37756 C 417.82119,522.91575 417,523.44548 417,522.62244 Z M 87.404988,516.75 85.5,514.5 l 2.25,1.90499 C 89.864445,518.19521 90.455241,519 89.654988,519 c -0.189757,0 -1.202257,-1.0125 -2.25,-2.25 z M 425,515.62244 c 0,-0.20765 0.7875,-0.99515 1.75,-1.75 1.58606,-1.24387 1.62143,-1.2085 0.37756,0.37756 C 425.82119,515.91575 425,516.44548 425,515.62244 Z M 76.404988,506.75 74.5,504.5 l 2.25,1.90499 C 78.864445,508.19521 79.455241,509 78.654988,509 c -0.189757,0 -1.202257,-1.0125 -2.25,-2.25 z m -4.532543,-4.5 c -1.243871,-1.58606 -1.208501,-1.62143 0.377555,-0.37756 0.9625,0.75485 1.75,1.54235 1.75,1.75 0,0.82304 -0.821186,0.29331 -2.127555,-1.37244 z M 447,493.62244 c 0,-0.20765 0.7875,-0.99515 1.75,-1.75 1.58606,-1.24387 1.62143,-1.2085 0.37756,0.37756 C 447.82119,493.91575 447,494.44548 447,493.62244 Z M 61.872445,491.25 c -1.243871,-1.58606 -1.208501,-1.62143 0.377555,-0.37756 0.9625,0.75485 1.75,1.54235 1.75,1.75 0,0.82304 -0.821186,0.29331 -2.127555,-1.37244 z M 453.5,486 c 0.33992,-0.55 0.84303,-1 1.11803,-1 0.275,0 0.22189,0.45 -0.11803,1 -0.33992,0.55 -0.84303,1 -1.11803,1 -0.275,0 -0.22189,-0.45 0.11803,-1 z M 56.404508,484.84549 c -0.442079,-0.7153 -0.274316,-0.88306 0.440984,-0.44098 C 57.480471,484.79695 58,485.31648 58,485.55902 c 0,0.83414 -0.883051,0.43922 -1.595492,-0.71353 z M 457.5,481 c 0.33992,-0.55 0.84303,-1 1.11803,-1 0.275,0 0.22189,0.45 -0.11803,1 -0.33992,0.55 -0.84303,1 -1.11803,1 -0.275,0 -0.22189,-0.45 0.11803,-1 z M 52.404508,479.84549 c -0.442079,-0.7153 -0.274316,-0.88306 0.440984,-0.44098 C 53.480471,479.79695 54,480.31648 54,480.55902 c 0,0.83414 -0.883051,0.43922 -1.595492,-0.71353 z M 97.5,478 c 0.339919,-0.55 0.843034,-1 1.118034,-1 0.275,0 0.221885,0.45 -0.118034,1 -0.339919,0.55 -0.843034,1 -1.118034,1 -0.275,0 -0.221885,-0.45 0.118034,-1 z m 363,-1 c 0.33992,-0.55 0.84303,-1 1.11803,-1 0.275,0 0.22189,0.45 -0.11803,1 -0.33992,0.55 -0.84303,1 -1.11803,1 -0.275,0 -0.22189,-0.45 0.11803,-1 z M 49.404508,475.84549 c -0.442079,-0.7153 -0.274316,-0.88306 0.440984,-0.44098 C 50.480471,475.79695 51,476.31648 51,476.55902 c 0,0.83414 -0.883051,0.43922 -1.595492,-0.71353 z m -5,-7 c -0.442079,-0.7153 -0.274316,-0.88306 0.440984,-0.44098 C 45.480471,468.79695 46,469.31648 46,469.55902 c 0,0.83414 -0.883051,0.43922 -1.595492,-0.71353 z M 106.5,467 c 0.33992,-0.55 0.84303,-1 1.11803,-1 0.275,0 0.22189,0.45 -0.11803,1 -0.33992,0.55 -0.84303,1 -1.11803,1 -0.275,0 -0.22189,-0.45 0.11803,-1 z m 16.5,-8.5 c 3.54322,-3.575 6.66722,-6.5 6.94222,-6.5 0.275,0 -2.399,2.925 -5.94222,6.5 -3.54322,3.575 -6.66722,6.5 -6.94222,6.5 -0.275,0 2.399,-2.925 5.94222,-6.5 z m -12.5,3.5 c 0.33992,-0.55 0.84303,-1 1.11803,-1 0.275,0 0.22189,0.45 -0.11803,1 -0.33992,0.55 -0.84303,1 -1.11803,1 -0.275,0 -0.22189,-0.45 0.11803,-1 z m 3.5,-4.37756 c 0,-0.20765 0.7875,-0.99515 1.75,-1.75 1.58606,-1.24387 1.62143,-1.2085 0.37756,0.37756 C 114.82119,457.91575 114,458.44548 114,457.62244 Z M 123.5,446 c 0.33992,-0.55 0.84303,-1 1.11803,-1 0.275,0 0.22189,0.45 -0.11803,1 -0.33992,0.55 -0.84303,1 -1.11803,1 -0.275,0 -0.22189,-0.45 0.11803,-1 z m 4,-5 c 0.33992,-0.55 0.84303,-1 1.11803,-1 0.275,0 0.22189,0.45 -0.11803,1 -0.33992,0.55 -0.84303,1 -1.11803,1 -0.275,0 -0.22189,-0.45 0.11803,-1 z m 4,-5 c 0.33992,-0.55 0.84303,-1 1.11803,-1 0.275,0 0.22189,0.45 -0.11803,1 -0.33992,0.55 -0.84303,1 -1.11803,1 -0.275,0 -0.22189,-0.45 0.11803,-1 z m 5,-6 c 0.33992,-0.55 0.84303,-1 1.11803,-1 0.275,0 0.22189,0.45 -0.11803,1 -0.33992,0.55 -0.84303,1 -1.11803,1 -0.275,0 -0.22189,-0.45 0.11803,-1 z m 697,-3 c 0.33992,-0.55 0.84303,-1 1.11803,-1 0.275,0 0.22189,0.45 -0.11803,1 -0.33992,0.55 -0.84303,1 -1.11803,1 -0.275,0 -0.22189,-0.45 0.11803,-1 z M 140,425.62244 c 0,-0.20765 0.7875,-0.99515 1.75,-1.75 1.58606,-1.24387 1.62143,-1.2085 0.37756,0.37756 C 140.82119,425.91575 140,426.44548 140,425.62244 Z m 4,-5 c 0,-0.20765 0.7875,-0.99515 1.75,-1.75 1.58606,-1.24387 1.62143,-1.2085 0.37756,0.37756 C 144.82119,420.91575 144,421.44548 144,420.62244 Z M 170,411.5 c 4.65071,-4.675 8.68084,-8.5 8.95584,-8.5 0.275,0 -3.30513,3.825 -7.95584,8.5 -4.65071,4.675 -8.68084,8.5 -8.95584,8.5 -0.275,0 3.30513,-3.825 7.95584,-8.5 z M 153.5,409 c 0.33992,-0.55 0.84303,-1 1.11803,-1 0.275,0 0.22189,0.45 -0.11803,1 -0.33992,0.55 -0.84303,1 -1.11803,1 -0.275,0 -0.22189,-0.45 0.11803,-1 z m 3.5,-4.37756 c 0,-0.20765 0.7875,-0.99515 1.75,-1.75 1.58606,-1.24387 1.62143,-1.2085 0.37756,0.37756 C 157.82119,404.91575 157,405.44548 157,404.62244 Z M 162.5,398 c 0.33992,-0.55 0.84303,-1 1.11803,-1 0.275,0 0.22189,0.45 -0.11803,1 -0.33992,0.55 -0.84303,1 -1.11803,1 -0.275,0 -0.22189,-0.45 0.11803,-1 z M 501,397 c 0,-0.73333 0.3,-1.03333 0.66667,-0.66667 0.36666,0.36667 0.36666,0.96667 0,1.33334 C 501.3,398.03333 501,397.73333 501,397 Z M 9,394 c 0,-0.73333 0.3,-1.03333 0.6666667,-0.66667 0.3666663,0.36667 0.3666663,0.96667 0,1.33334 C 9.3,395.03333 9,394.73333 9,394 Z m 157.5,-1 c 0.33992,-0.55 0.84303,-1 1.11803,-1 0.275,0 0.22189,0.45 -0.11803,1 -0.33992,0.55 -0.84303,1 -1.11803,1 -0.275,0 -0.22189,-0.45 0.11803,-1 z M 503,390 c 0,-0.73333 0.3,-1.03333 0.66667,-0.66667 0.36666,0.36667 0.36666,0.96667 0,1.33334 C 503.3,391.03333 503,390.73333 503,390 Z m -309.5,-1 c 0.33992,-0.55 0.84303,-1 1.11803,-1 0.275,0 0.22189,0.45 -0.11803,1 -0.33992,0.55 -0.84303,1 -1.11803,1 -0.275,0 -0.22189,-0.45 0.11803,-1 z M 7,387 c 0,-0.73333 0.3,-1.03333 0.6666667,-0.66667 0.3666666,0.36667 0.3666666,0.96667 0,1.33334 C 7.3,388.03333 7,387.73333 7,387 Z m 194.33333,-1.66667 c 0.36667,-0.36666 0.96667,-0.36666 1.33334,0 C 203.03333,385.7 202.73333,386 202,386 c -0.73333,0 -1.03333,-0.3 -0.66667,-0.66667 z m 30.62601,-1.07378 23.96035,-0.29492 0.35074,-7.73232 0.35075,-7.73231 -0.0606,8 -0.0606,8 -24.25051,0.0272 -24.2505,0.0272 23.96035,-0.29492 z M 174.5,383 c 0.33992,-0.55 0.84303,-1 1.11803,-1 0.275,0 0.22189,0.45 -0.11803,1 -0.33992,0.55 -0.84303,1 -1.11803,1 -0.275,0 -0.22189,-0.45 0.11803,-1 z M 5,378 c 0,-0.73333 0.3,-1.03333 0.6666667,-0.66667 0.3666666,0.36667 0.3666666,0.96667 0,1.33334 C 5.3,379.03333 5,378.73333 5,378 Z m 174.5,-1 c 0.33992,-0.55 0.84303,-1 1.11803,-1 0.275,0 0.22189,0.45 -0.11803,1 -0.33992,0.55 -0.84303,1 -1.11803,1 -0.275,0 -0.22189,-0.45 0.11803,-1 z m 326.5,0 c 0,-0.73333 0.3,-1.03333 0.66667,-0.66667 0.36666,0.36667 0.36666,0.96667 0,1.33334 C 506.3,378.03333 506,377.73333 506,377 Z M 4,373 c 0,-0.73333 0.3,-1.03333 0.6666667,-0.66667 0.3666666,0.36667 0.3666666,0.96667 0,1.33334 C 4.3,374.03333 4,373.73333 4,373 Z m 179.5,-1 c 0.33992,-0.55 0.84303,-1 1.11803,-1 0.275,0 0.22189,0.45 -0.11803,1 -0.33992,0.55 -0.84303,1 -1.11803,1 -0.275,0 -0.22189,-0.45 0.11803,-1 z m 323.5,0 c 0,-0.73333 0.3,-1.03333 0.66667,-0.66667 0.36666,0.36667 0.36666,0.96667 0,1.33334 C 507.3,373.03333 507,372.73333 507,372 Z M 3,368 c 0,-0.73333 0.3,-1.03333 0.6666667,-0.66667 0.3666666,0.36667 0.3666666,0.96667 0,1.33334 C 3.3,369.03333 3,368.73333 3,368 Z m 303.33333,-0.66667 c 0.36667,-0.36666 0.96667,-0.36666 1.33334,0 C 308.03333,367.7 307.73333,368 307,368 c -0.73333,0 -1.03333,-0.3 -0.66667,-0.66667 z M 508,367 c 0,-0.73333 0.3,-1.03333 0.66667,-0.66667 0.36666,0.36667 0.36666,0.96667 0,1.33334 C 508.3,368.03333 508,367.73333 508,367 Z m -319.5,-1 c 0.33992,-0.55 0.84303,-1 1.11803,-1 0.275,0 0.22189,0.45 -0.11803,1 -0.33992,0.55 -0.84303,1 -1.11803,1 -0.275,0 -0.22189,-0.45 0.11803,-1 z m 123.83333,0.33333 c 0.36667,-0.36666 0.96667,-0.36666 1.33334,0 C 314.03333,366.7 313.73333,367 313,367 c -0.73333,0 -1.03333,-0.3 -0.66667,-0.66667 z M 2.1578947,362 c 0,-1.375 0.2269737,-1.9375 0.504386,-1.25 0.2774123,0.6875 0.2774123,1.8125 0,2.5 -0.2774123,0.6875 -0.504386,0.125 -0.504386,-1.25 z M 192.5,361 c 0.33992,-0.55 0.84303,-1 1.11803,-1 0.275,0 0.22189,0.45 -0.11803,1 -0.33992,0.55 -0.84303,1 -1.11803,1 -0.275,0 -0.22189,-0.45 0.11803,-1 z m 135.83333,0.33333 c 0.36667,-0.36666 0.96667,-0.36666 1.33334,0 C 330.03333,361.7 329.73333,362 329,362 c -0.73333,0 -1.03333,-0.3 -0.66667,-0.66667 z M 509,360 c 0,-0.73333 0.3,-1.03333 0.66667,-0.66667 0.36666,0.36667 0.36666,0.96667 0,1.33334 C 509.3,361.03333 509,360.73333 509,360 Z m -312.5,-4 c 0.33992,-0.55 0.84303,-1 1.11803,-1 0.275,0 0.22189,0.45 -0.11803,1 -0.33992,0.55 -0.84303,1 -1.11803,1 -0.275,0 -0.22189,-0.45 0.11803,-1 z M 1,354 c 0,-0.73333 0.3,-1.03333 0.6666667,-0.66667 0.3666666,0.36667 0.3666666,0.96667 0,1.33334 C 1.3,355.03333 1,354.73333 1,354 Z m 509.07895,-0.58333 c 0.048,-1.16495 0.28494,-1.4019 0.60416,-0.60417 0.28887,0.72187 0.25335,1.58438 -0.0789,1.91667 -0.33229,0.33229 -0.56864,-0.25834 -0.52522,-1.3125 z M 349.95821,346.75 C 354.10217,342.33481 355,341.54091 355,342.29179 c 0,0.16049 -2.1375,2.29799 -4.75,4.75 L 345.5,351.5 Z M 0.2521834,343.5 c 0.0110994,-2.2 0.21588425,-2.98225 0.45507747,-1.73834 0.23919321,1.24391 0.2301119,3.04391 -0.0201807,4 C 0.43678756,346.71775 0.24108402,345.7 0.2521834,343.5 Z M 204,346.62244 c 0,-0.20765 0.7875,-0.99515 1.75,-1.75 1.58606,-1.24387 1.62143,-1.2085 0.37756,0.37756 C 204.82119,346.91575 204,347.44548 204,346.62244 Z M 511.232,340 c 0,-1.925 0.2058,-2.7125 0.45733,-1.75 0.25152,0.9625 0.25152,2.5375 0,3.5 -0.25153,0.9625 -0.45733,0.175 -0.45733,-1.75 z M 209.5,340 c 0.33992,-0.55 0.84303,-1 1.11803,-1 0.275,0 0.22189,0.45 -0.11803,1 -0.33992,0.55 -0.84303,1 -1.11803,1 -0.275,0 -0.22189,-0.45 0.11803,-1 z m 148,-2 c 0.33992,-0.55 0.84303,-1 1.11803,-1 0.275,0 0.22189,0.45 -0.11803,1 -0.33992,0.55 -0.84303,1 -1.11803,1 -0.275,0 -0.22189,-0.45 0.11803,-1 z m -144,-3 c 0.33992,-0.55 0.84303,-1 1.11803,-1 0.275,0 0.22189,0.45 -0.11803,1 -0.33992,0.55 -0.84303,1 -1.11803,1 -0.275,0 -0.22189,-0.45 0.11803,-1 z m 146,0 c 0.33992,-0.55 0.84303,-1 1.11803,-1 0.275,0 0.22189,0.45 -0.11803,1 -0.33992,0.55 -0.84303,1 -1.11803,1 -0.275,0 -0.22189,-0.45 0.11803,-1 z m -141,-6 c 0.33992,-0.55 0.84303,-1 1.11803,-1 0.275,0 0.22189,0.45 -0.11803,1 -0.33992,0.55 -0.84303,1 -1.11803,1 -0.275,0 -0.22189,-0.45 0.11803,-1 z m 8,-10 c 0.33992,-0.55 0.84303,-1 1.11803,-1 0.275,0 0.22189,0.45 -0.11803,1 -0.33992,0.55 -0.84303,1 -1.11803,1 -0.275,0 -0.22189,-0.45 0.11803,-1 z m 4,-5 c 0.33992,-0.55 0.84303,-1 1.11803,-1 0.275,0 0.22189,0.45 -0.11803,1 -0.33992,0.55 -0.84303,1 -1.11803,1 -0.275,0 -0.22189,-0.45 0.11803,-1 z m 3.5,-4.37756 c 0,-0.20765 0.7875,-0.99515 1.75,-1.75 1.58606,-1.24387 1.62143,-1.2085 0.37756,0.37756 C 234.82119,309.91575 234,310.44548 234,309.62244 Z M 511.232,307 c 0,-1.925 0.2058,-2.7125 0.45733,-1.75 0.25152,0.9625 0.25152,2.5375 0,3.5 -0.25153,0.9625 -0.45733,0.175 -0.45733,-1.75 z M 0.2521834,303.5 c 0.0110994,-2.2 0.21588425,-2.98225 0.45507747,-1.73834 0.23919321,1.24391 0.2301119,3.04391 -0.0201807,4 C 0.43678756,306.71775 0.24108402,305.7 0.2521834,303.5 Z M 373,304 c 0,-0.73333 0.3,-1.03333 0.66667,-0.66667 0.36666,0.36667 0.36666,0.96667 0,1.33334 C 373.3,305.03333 373,304.73333 373,304 Z m -133.5,-1 c 0.33992,-0.55 0.84303,-1 1.11803,-1 0.275,0 0.22189,0.45 -0.11803,1 -0.33992,0.55 -0.84303,1 -1.11803,1 -0.275,0 -0.22189,-0.45 0.11803,-1 z m 3.5,-4.37756 c 0,-0.20765 0.7875,-0.99515 1.75,-1.75 1.58606,-1.24387 1.62143,-1.2085 0.37756,0.37756 C 243.82119,298.91575 243,299.44548 243,298.62244 Z M 375.15789,293 c 0,-1.375 0.22698,-1.9375 0.50439,-1.25 0.27741,0.6875 0.27741,1.8125 0,2.5 -0.27741,0.6875 -0.50439,0.125 -0.50439,-1.25 z m 134.92106,0.41667 c 0.048,-1.16495 0.28494,-1.4019 0.60416,-0.60417 0.28887,0.72187 0.25335,1.58438 -0.0789,1.91667 -0.33229,0.33229 -0.56864,-0.25834 -0.52522,-1.3125 z M 1,293 c 0,-0.73333 0.3,-1.03333 0.6666667,-0.66667 0.3666666,0.36667 0.3666666,0.96667 0,1.33334 C 1.3,294.03333 1,293.73333 1,293 Z m 508,-6 c 0,-0.73333 0.3,-1.03333 0.66667,-0.66667 0.36666,0.36667 0.36666,0.96667 0,1.33334 C 509.3,288.03333 509,287.73333 509,287 Z M 2.0789474,285.41667 c 0.047984,-1.16495 0.2849403,-1.4019 0.6041666,-0.60417 0.2888706,0.72187 0.2533443,1.58438 -0.078947,1.91667 -0.3322917,0.33229 -0.5686404,-0.25834 -0.5252196,-1.3125 z M 376.25218,282.5 c 0.0111,-2.2 0.21589,-2.98225 0.45508,-1.73834 0.23919,1.24391 0.23011,3.04391 -0.0202,4 -0.25029,0.95609 -0.446,-0.0617 -0.4349,-2.26166 z M 256.5,282 c 0.33992,-0.55 0.84303,-1 1.11803,-1 0.275,0 0.22189,0.45 -0.11803,1 -0.33992,0.55 -0.84303,1 -1.11803,1 -0.275,0 -0.22189,-0.45 0.11803,-1 z M 508,280 c 0,-0.73333 0.3,-1.03333 0.66667,-0.66667 0.36666,0.36667 0.36666,0.96667 0,1.33334 C 508.3,281.03333 508,280.73333 508,280 Z M 3,279 c 0,-0.73333 0.3,-1.03333 0.6666667,-0.66667 0.3666666,0.36667 0.3666666,0.96667 0,1.33334 C 3.3,280.03333 3,279.73333 3,279 Z m 257,-1.37756 c 0,-0.20765 0.7875,-0.99515 1.75,-1.75 1.58606,-1.24387 1.62143,-1.2085 0.37756,0.37756 C 260.82119,277.91575 260,278.44548 260,277.62244 Z M 507,275 c 0,-0.73333 0.3,-1.03333 0.66667,-0.66667 0.36666,0.36667 0.36666,0.96667 0,1.33334 C 507.3,276.03333 507,275.73333 507,275 Z m -243,-2.37756 c 0,-0.20765 0.7875,-0.99515 1.75,-1.75 1.58606,-1.24387 1.62143,-1.2085 0.37756,0.37756 C 264.82119,272.91575 264,273.44548 264,272.62244 Z M 376.25218,269.5 c 0.0111,-2.2 0.21589,-2.98225 0.45508,-1.73834 0.23919,1.24391 0.23011,3.04391 -0.0202,4 -0.25029,0.95609 -0.446,-0.0617 -0.4349,-2.26166 z m 129.82677,-0.0833 c 0.048,-1.16495 0.28494,-1.4019 0.60416,-0.60417 0.28887,0.72187 0.25335,1.58438 -0.0789,1.91667 -0.33229,0.33229 -0.56864,-0.25834 -0.52522,-1.3125 z M 5,269 c 0,-0.73333 0.3,-1.03333 0.6666667,-0.66667 0.3666666,0.36667 0.3666666,0.96667 0,1.33334 C 5.3,270.03333 5,269.73333 5,269 Z m 268,-7.37756 c 0,-0.20765 0.7875,-0.99515 1.75,-1.75 1.58606,-1.24387 1.62143,-1.2085 0.37756,0.37756 C 273.82119,261.91575 273,262.44548 273,261.62244 Z M 7,260 c 0,-0.73333 0.3,-1.03333 0.6666667,-0.66667 0.3666666,0.36667 0.3666666,0.96667 0,1.33334 C 7.3,261.03333 7,260.73333 7,260 Z m 685.33333,0.33333 c 0.36667,-0.36666 0.96667,-0.36666 1.33334,0 C 694.03333,260.7 693.73333,261 693,261 c -0.73333,0 -1.03333,-0.3 -0.66667,-0.66667 z M 375.15789,258 c 0,-1.375 0.22698,-1.9375 0.50439,-1.25 0.27741,0.6875 0.27741,1.8125 0,2.5 -0.27741,0.6875 -0.50439,0.125 -0.50439,-1.25 z M 503,257 c 0,-0.73333 0.3,-1.03333 0.66667,-0.66667 0.36666,0.36667 0.36666,0.96667 0,1.33334 C 503.3,258.03333 503,257.73333 503,257 Z m -225.5,-1 c 0.33992,-0.55 0.84303,-1 1.11803,-1 0.275,0 0.22189,0.45 -0.11803,1 -0.33992,0.55 -0.84303,1 -1.11803,1 -0.275,0 -0.22189,-0.45 0.11803,-1 z M 9,253 c 0,-0.73333 0.3,-1.03333 0.6666667,-0.66667 0.3666663,0.36667 0.3666663,0.96667 0,1.33334 C 9.3,254.03333 9,253.73333 9,253 Z m 273.5,-3 c 0.33992,-0.55 0.84303,-1 1.11803,-1 0.275,0 0.22189,0.45 -0.11803,1 -0.33992,0.55 -0.84303,1 -1.11803,1 -0.275,0 -0.22189,-0.45 0.11803,-1 z m 91.5,0 c 0,-0.73333 0.3,-1.03333 0.66667,-0.66667 0.36666,0.36667 0.36666,0.96667 0,1.33334 C 374.3,251.03333 374,250.73333 374,250 Z m 127,0 c 0,-0.73333 0.3,-1.03333 0.66667,-0.66667 0.36666,0.36667 0.36666,0.96667 0,1.33334 C 501.3,251.03333 501,250.73333 501,250 Z m -215,-4.37756 c 0,-0.20765 0.7875,-0.99515 1.75,-1.75 1.58606,-1.24387 1.62143,-1.2085 0.37756,0.37756 C 286.82119,245.91575 286,246.44548 286,245.62244 Z M 12,243 c 0,-0.73333 0.3,-1.03333 0.666667,-0.66667 0.366666,0.36667 0.366666,0.96667 0,1.33334 C 12.3,244.03333 12,243.73333 12,243 Z m 279.5,-4 c 0.33992,-0.55 0.84303,-1 1.11803,-1 0.275,0 0.22189,0.45 -0.11803,1 -0.33992,0.55 -0.84303,1 -1.11803,1 -0.275,0 -0.22189,-0.45 0.11803,-1 z m 526.57895,-3.58333 c 0.048,-1.16495 0.28494,-1.4019 0.60416,-0.60417 0.28887,0.72187 0.25335,1.58437 -0.0789,1.91667 -0.33229,0.33229 -0.56864,-0.25834 -0.52522,-1.3125 z M 496,235 c 0,-0.73333 0.3,-1.03333 0.66667,-0.66667 0.36666,0.36667 0.36666,0.96667 0,1.33334 C 496.3,236.03333 496,235.73333 496,235 Z m -200.5,-1 c 0.33992,-0.55 0.84303,-1 1.11803,-1 0.275,0 0.22189,0.45 -0.11803,1 -0.33992,0.55 -0.84303,1 -1.11803,1 -0.275,0 -0.22189,-0.45 0.11803,-1 z m 770.5,-2 c 0,-0.73333 0.3,-1.03333 0.6667,-0.66667 0.3666,0.36667 0.3666,0.96667 0,1.33334 C 1066.3,233.03333 1066,232.73333 1066,232 Z m -766.5,-3 c 0.33992,-0.55 0.84303,-1 1.11803,-1 0.275,0 0.22189,0.45 -0.11803,1 -0.33992,0.55 -0.84303,1 -1.11803,1 -0.275,0 -0.22189,-0.45 0.11803,-1 z m 518.57895,-0.58333 c 0.048,-1.16495 0.28494,-1.4019 0.60416,-0.60417 0.28887,0.72187 0.25335,1.58437 -0.0789,1.91667 -0.33229,0.33229 -0.56864,-0.25834 -0.52522,-1.3125 z M 374,228 c 0,-0.73333 0.3,-1.03333 0.66667,-0.66667 0.36666,0.36667 0.36666,0.96667 0,1.33334 C 374.3,229.03333 374,228.73333 374,228 Z m 1,-6 c 0,-0.73333 0.3,-1.03333 0.66667,-0.66667 0.36666,0.36667 0.36666,0.96667 0,1.33334 C 375.3,223.03333 375,222.73333 375,222 Z m -68.80505,-3.5 c 0.0204,-1.65 0.2445,-2.20394 0.49804,-1.23097 0.25354,0.97297 0.23687,2.32297 -0.0371,3 -0.27393,0.67703 -0.48137,-0.11903 -0.46099,-1.76903 z M 307,209 c 0,-0.73333 0.3,-1.03333 0.66667,-0.66667 0.36666,0.36667 0.36666,0.96667 0,1.33334 C 307.3,210.03333 307,209.73333 307,209 Z m 49.40499,-8.25 -1.90499,-2.25 2.25,1.90499 c 1.2375,1.04774 2.25,2.06024 2.25,2.25 0,0.80025 -0.80479,0.20945 -2.59501,-1.90499 z M 340,201.62244 c 0,-0.20765 0.7875,-0.99515 1.75,-1.75 1.58606,-1.24387 1.62143,-1.2085 0.37756,0.37756 C 340.82119,201.91575 340,202.44548 340,201.62244 Z M 394.95821,195.75 c 2.45201,-2.6125 4.58951,-4.75 4.75,-4.75 0.75088,0 -0.043,0.89783 -4.45821,5.04179 L 390.5,200.5 Z M 311,198 c 0,-0.73333 0.3,-1.03333 0.66667,-0.66667 0.36666,0.36667 0.36666,0.96667 0,1.33334 C 311.3,199.03333 311,198.73333 311,198 Z m 36.75,-0.66228 c 0.6875,-0.27741 1.8125,-0.27741 2.5,0 0.6875,0.27741 0.125,0.50439 -1.25,0.50439 -1.375,0 -1.9375,-0.22698 -1.25,-0.50439 z m 30.58333,-1.00439 c 0.36667,-0.36666 0.96667,-0.36666 1.33334,0 C 380.03333,196.7 379.73333,197 379,197 c -0.73333,0 -1.03333,-0.3 -0.66667,-0.66667 z m -4.92882,-4.48784 c -0.44208,-0.7153 -0.27432,-0.88306 0.44098,-0.44098 1.15275,0.71244 1.54767,1.59549 0.71353,1.59549 -0.24254,0 -0.76207,-0.51953 -1.15451,-1.15451 z M 315.5,191 c 0.33992,-0.55 0.84303,-1 1.11803,-1 0.275,0 0.22189,0.45 -0.11803,1 -0.33992,0.55 -0.84303,1 -1.11803,1 -0.275,0 -0.22189,-0.45 0.11803,-1 z m 82.83333,-1.66667 c 0.36667,-0.36666 0.96667,-0.36666 1.33334,0 C 400.03333,189.7 399.73333,190 399,190 c -0.73333,0 -1.03333,-0.3 -0.66667,-0.66667 z M 38.5,187 c 0.339919,-0.55 0.843034,-1 1.118034,-1 0.275,0 0.221885,0.45 -0.118034,1 -0.339919,0.55 -0.843034,1 -1.118034,1 -0.275,0 -0.221885,-0.45 0.118034,-1 z M 320,186.62244 c 0,-0.20765 0.7875,-0.99515 1.75,-1.75 1.58606,-1.24387 1.62143,-1.2085 0.37756,0.37756 C 320.82119,186.91575 320,187.44548 320,186.62244 Z m 45.40451,-2.77695 c -0.44208,-0.7153 -0.27432,-0.88306 0.44098,-0.44098 1.15275,0.71244 1.54767,1.59549 0.71353,1.59549 -0.24254,0 -0.76207,-0.51953 -1.15451,-1.15451 z M 44.5,178 c 0.339919,-0.55 0.843034,-1 1.118034,-1 0.275,0 0.221885,0.45 -0.118034,1 -0.339919,0.55 -0.843034,1 -1.118034,1 -0.275,0 -0.221885,-0.45 0.118034,-1 z m 294.3125,-0.68311 c 0.72187,-0.28887 1.58438,-0.25335 1.91667,0.0789 0.33229,0.33229 -0.25834,0.56864 -1.3125,0.52522 -1.16495,-0.048 -1.4019,-0.28494 -0.60417,-0.60416 z m 10.52083,0.0164 c 0.36667,-0.36666 0.96667,-0.36666 1.33334,0 C 351.03333,177.7 350.73333,178 350,178 c -0.73333,0 -1.03333,-0.3 -0.66667,-0.66667 z M 49.5,171 c 0.339919,-0.55 0.843034,-1 1.118034,-1 0.275,0 0.221885,0.45 -0.118034,1 -0.339919,0.55 -0.843034,1 -1.118034,1 -0.275,0 -0.221885,-0.45 0.118034,-1 z m 3,-4 c 0.339919,-0.55 0.843034,-1 1.118034,-1 0.275,0 0.221885,0.45 -0.118034,1 -0.339919,0.55 -0.843034,1 -1.118034,1 -0.275,0 -0.221885,-0.45 0.118034,-1 z m 404.90451,-1.15451 c -0.44208,-0.7153 -0.27432,-0.88306 0.44098,-0.44098 0.63498,0.39244 1.15451,0.91197 1.15451,1.15451 0,0.83414 -0.88305,0.43922 -1.59549,-0.71353 z M 56.5,162 c 0.339919,-0.55 0.843034,-1 1.118034,-1 0.275,0 0.221885,0.45 -0.118034,1 -0.339919,0.55 -0.843034,1 -1.118034,1 -0.275,0 -0.221885,-0.45 0.118034,-1 z m 396.90451,-1.15451 c -0.44208,-0.7153 -0.27432,-0.88306 0.44098,-0.44098 0.63498,0.39244 1.15451,0.91197 1.15451,1.15451 0,0.83414 -0.88305,0.43922 -1.59549,-0.71353 z M 61,156.62244 c 0,-0.20765 0.7875,-0.99515 1.75,-1.75 1.586056,-1.24387 1.621426,-1.2085 0.377555,0.37756 C 61.821186,156.91575 61,157.44548 61,156.62244 Z M 447.87244,154.25 c -1.24387,-1.58606 -1.2085,-1.62143 0.37756,-0.37756 0.9625,0.75485 1.75,1.54235 1.75,1.75 0,0.82304 -0.82119,0.29331 -2.12756,-1.37244 z M 73.958208,142.75 C 78.102173,138.33481 79,137.54091 79,138.29179 c 0,0.16049 -2.1375,2.29799 -4.75,4.75 L 69.5,147.5 Z m 362.446782,-1 -1.90499,-2.25 2.25,1.90499 c 1.2375,1.04774 2.25,2.06024 2.25,2.25 0,0.80025 -0.80479,0.20945 -2.59501,-1.90499 z m -12.53255,-11.5 c -1.24387,-1.58606 -1.2085,-1.62143 0.37756,-0.37756 1.66575,1.30637 2.19548,2.12756 1.37244,2.12756 -0.20765,0 -0.99515,-0.7875 -1.75,-1.75 z M 87.5,130 c 0.339919,-0.55 0.843034,-1 1.118034,-1 0.275,0 0.221885,0.45 -0.118034,1 -0.339919,0.55 -0.843034,1 -1.118034,1 -0.275,0 -0.221885,-0.45 0.118034,-1 z m 584,-1 c 0.33992,-0.55 0.84303,-1 1.11803,-1 0.275,0 0.22189,0.45 -0.11803,1 -0.33992,0.55 -0.84303,1 -1.11803,1 -0.275,0 -0.22189,-0.45 0.11803,-1 z m -254.09549,-4.15451 c -0.44208,-0.7153 -0.27432,-0.88306 0.44098,-0.44098 1.15275,0.71244 1.54767,1.59549 0.71353,1.59549 -0.24254,0 -0.76207,-0.51953 -1.15451,-1.15451 z M 98.5,121 c 0.339919,-0.55 0.843034,-1 1.118034,-1 0.275,0 0.221885,0.45 -0.118034,1 -0.339919,0.55 -0.843034,1 -1.118034,1 -0.275,0 -0.221885,-0.45 0.118034,-1 z m 313.90451,-0.15451 c -0.44208,-0.7153 -0.27432,-0.88306 0.44098,-0.44098 0.63498,0.39244 1.15451,0.91197 1.15451,1.15451 0,0.83414 -0.88305,0.43922 -1.59549,-0.71353 z m -4,-3 c -0.44208,-0.7153 -0.27432,-0.88306 0.44098,-0.44098 0.63498,0.39244 1.15451,0.91197 1.15451,1.15451 0,0.83414 -0.88305,0.43922 -1.59549,-0.71353 z M 121.5,105 c 0.33992,-0.55 0.84303,-1 1.11803,-1 0.275,0 0.22189,0.45 -0.11803,1 -0.33992,0.55 -0.84303,1 -1.11803,1 -0.275,0 -0.22189,-0.45 0.11803,-1 z m 821.79159,-6.742498 c 3.73537,-0.192928 9.58537,-0.191497 13,0.0032 3.41462,0.194677 0.35841,0.352527 -6.79159,0.350778 -7.15,-0.0017 -9.94379,-0.161031 -6.20841,-0.353958 z m 56.00412,-0.0016 c 4.28759,-0.187904 11.03759,-0.186758 14.99999,0.0025 3.9624,0.189304 0.4543,0.343044 -7.7957,0.341643 -8.25,-0.0014 -11.49193,-0.156287 -7.20429,-0.34419 z M 183.33333,77.333333 c 0.36667,-0.366666 0.96667,-0.366666 1.33334,0 C 185.03333,77.7 184.73333,78 184,78 c -0.73333,0 -1.03333,-0.3 -0.66667,-0.666667 z m 144,0 c 0.36667,-0.366666 0.96667,-0.366666 1.33334,0 C 329.03333,77.7 328.73333,78 328,78 c -0.73333,0 -1.03333,-0.3 -0.66667,-0.666667 z m -137,-2 c 0.36667,-0.366666 0.96667,-0.366666 1.33334,0 C 192.03333,75.7 191.73333,76 191,76 c -0.73333,0 -1.03333,-0.3 -0.66667,-0.666667 z m 130,0 c 0.36667,-0.366666 0.96667,-0.366666 1.33334,0 C 322.03333,75.7 321.73333,76 321,76 c -0.73333,0 -1.03333,-0.3 -0.66667,-0.666667 z m -122,-2 c 0.36667,-0.366666 0.96667,-0.366666 1.33334,0 C 200.03333,73.7 199.73333,74 199,74 c -0.73333,0 -1.03333,-0.3 -0.66667,-0.666667 z m 114,0 c 0.36667,-0.366666 0.96667,-0.366666 1.33334,0 C 314.03333,73.7 313.73333,74 313,74 c -0.73333,0 -1.03333,-0.3 -0.66667,-0.666667 z m -104,-2 c 0.36667,-0.366666 0.96667,-0.366666 1.33334,0 C 210.03333,71.7 209.73333,72 209,72 c -0.73333,0 -1.03333,-0.3 -0.66667,-0.666667 z m 94,0 c 0.36667,-0.366666 0.96667,-0.366666 1.33334,0 C 304.03333,71.7 303.73333,72 303,72 c -0.73333,0 -1.03333,-0.3 -0.66667,-0.666667 z M 213.8125,70.316886 c 0.72187,-0.288871 1.58437,-0.253344 1.91667,0.07895 0.33229,0.332292 -0.25834,0.568641 -1.3125,0.52522 -1.16495,-0.04798 -1.4019,-0.284941 -0.60417,-0.604167 z m 82.52083,0.01645 c 0.36667,-0.366666 0.96667,-0.366666 1.33334,0 C 298.03333,70.7 297.73333,71 297,71 c -0.73333,0 -1.03333,-0.3 -0.66667,-0.666667 z m -75,-1 c 0.36667,-0.366666 0.96667,-0.366666 1.33334,0 C 223.03333,69.7 222.73333,70 222,70 c -0.73333,0 -1.03333,-0.3 -0.66667,-0.666667 z m 68,0 c 0.36667,-0.366666 0.96667,-0.366666 1.33334,0 C 291.03333,69.7 290.73333,70 290,70 c -0.73333,0 -1.03333,-0.3 -0.66667,-0.666667 z m -60.0643,-1.026324 c 0.97297,-0.253543 2.32297,-0.236869 3,0.03705 0.67703,0.273923 -0.11903,0.481368 -1.76903,0.460988 -1.65,-0.02038 -2.20394,-0.244498 -1.23097,-0.498042 z m 51,0 c 0.97297,-0.253543 2.32297,-0.236869 3,0.03705 0.67703,0.273923 -0.11903,0.481368 -1.76903,0.460988 -1.65,-0.02038 -2.20394,-0.244498 -1.23097,-0.498042 z m -35,-1 c 0.97297,-0.253543 2.32297,-0.236869 3,0.03705 0.67703,0.273923 -0.11903,0.481368 -1.76903,0.460988 -1.65,-0.02038 -2.20394,-0.244498 -1.23097,-0.498042 z m 17.98097,0.0037 c 0.9625,-0.251527 2.5375,-0.251527 3.5,0 0.9625,0.251528 0.175,0.457323 -1.75,0.457323 -1.925,0 -2.7125,-0.205795 -1.75,-0.457323 z"
     style="fill:#9ededc" />
  <path
     inkscape:connector-curvature="0"
     id="path876"
     d="m 234.26903,578.30701 c 0.97297,-0.25354 2.32297,-0.23687 3,0.0371 0.67703,0.27393 -0.11903,0.48137 -1.76903,0.46099 -1.65,-0.0204 -2.20394,-0.2445 -1.23097,-0.49804 z m 41,0 c 0.97297,-0.25354 2.32297,-0.23687 3,0.0371 0.67703,0.27393 -0.11903,0.48137 -1.76903,0.46099 -1.65,-0.0204 -2.20394,-0.2445 -1.23097,-0.49804 z m -50.45653,-0.99012 c 0.72187,-0.28887 1.58437,-0.25335 1.91667,0.0789 0.33229,0.33229 -0.25834,0.56864 -1.3125,0.52522 -1.16495,-0.048 -1.4019,-0.28494 -0.60417,-0.60416 z m 61,0 c 0.72187,-0.28887 1.58438,-0.25335 1.91667,0.0789 0.33229,0.33229 -0.25834,0.56864 -1.3125,0.52522 -1.16495,-0.048 -1.4019,-0.28494 -0.60417,-0.60416 z m -68.47917,-0.98356 c 0.36667,-0.36666 0.96667,-0.36666 1.33334,0 C 219.03333,576.7 218.73333,577 218,577 c -0.73333,0 -1.03333,-0.3 -0.66667,-0.66667 z m 76,0 c 0.36667,-0.36666 0.96667,-0.36666 1.33334,0 C 295.03333,576.7 294.73333,577 294,577 c -0.73333,0 -1.03333,-0.3 -0.66667,-0.66667 z m -82.52083,-1.01644 c 0.72187,-0.28887 1.58437,-0.25335 1.91667,0.0789 0.33229,0.33229 -0.25834,0.56864 -1.3125,0.52522 -1.16495,-0.048 -1.4019,-0.28494 -0.60417,-0.60416 z m 88,0 c 0.72187,-0.28887 1.58438,-0.25335 1.91667,0.0789 0.33229,0.33229 -0.25834,0.56864 -1.3125,0.52522 -1.16495,-0.048 -1.4019,-0.28494 -0.60417,-0.60416 z m -98,-2 c 0.72187,-0.28887 1.58437,-0.25335 1.91667,0.0789 0.33229,0.33229 -0.25834,0.56864 -1.3125,0.52522 -1.16495,-0.048 -1.4019,-0.28494 -0.60417,-0.60416 z m 109,0 c 0.72187,-0.28887 1.58438,-0.25335 1.91667,0.0789 0.33229,0.33229 -0.25834,0.56864 -1.3125,0.52522 -1.16495,-0.048 -1.4019,-0.28494 -0.60417,-0.60416 z m -117.47917,-1.98356 c 0.36667,-0.36666 0.96667,-0.36666 1.33334,0 C 194.03333,571.7 193.73333,572 193,572 c -0.73333,0 -1.03333,-0.3 -0.66667,-0.66667 z m 126,0 c 0.36667,-0.36666 0.96667,-0.36666 1.33334,0 C 320.03333,571.7 319.73333,572 319,572 c -0.73333,0 -1.03333,-0.3 -0.66667,-0.66667 z m -130,-1 c 0.36667,-0.36666 0.96667,-0.36666 1.33334,0 C 190.03333,570.7 189.73333,571 189,571 c -0.73333,0 -1.03333,-0.3 -0.66667,-0.66667 z m -7,-2 c 0.36667,-0.36666 0.96667,-0.36666 1.33334,0 C 183.03333,568.7 182.73333,569 182,569 c -0.73333,0 -1.03333,-0.3 -0.66667,-0.66667 z m 148,0 c 0.36667,-0.36666 0.96667,-0.36666 1.33334,0 C 331.03333,568.7 330.73333,569 330,569 c -0.73333,0 -1.03333,-0.3 -0.66667,-0.66667 z m 6,-2 c 0.36667,-0.36666 0.96667,-0.36666 1.33334,0 C 337.03333,566.7 336.73333,567 336,567 c -0.73333,0 -1.03333,-0.3 -0.66667,-0.66667 z m 14,-5 c 0.36667,-0.36666 0.96667,-0.36666 1.33334,0 C 351.03333,561.7 350.73333,562 350,562 c -0.73333,0 -1.03333,-0.3 -0.66667,-0.66667 z m -193,-2 c 0.36667,-0.36666 0.96667,-0.36666 1.33334,0 C 158.03333,559.7 157.73333,560 157,560 c -0.73333,0 -1.03333,-0.3 -0.66667,-0.66667 z m -38.92882,-20.48784 c -0.44208,-0.7153 -0.27432,-0.88306 0.44098,-0.44098 1.15275,0.71244 1.54767,1.59549 0.71353,1.59549 -0.24254,0 -0.76207,-0.51953 -1.15451,-1.15451 z M 410.5,527 c 0.33992,-0.55 0.84303,-1 1.11803,-1 0.275,0 0.22189,0.45 -0.11803,1 -0.33992,0.55 -0.84303,1 -1.11803,1 -0.275,0 -0.22189,-0.45 0.11803,-1 z M 96.404508,523.84549 c -0.442079,-0.7153 -0.274316,-0.88306 0.440984,-0.44098 1.152752,0.71244 1.547665,1.59549 0.713525,1.59549 -0.242541,0 -0.762069,-0.51953 -1.154509,-1.15451 z M 414.5,524 c 0.33992,-0.55 0.84303,-1 1.11803,-1 0.275,0 0.22189,0.45 -0.11803,1 -0.33992,0.55 -0.84303,1 -1.11803,1 -0.275,0 -0.22189,-0.45 0.11803,-1 z M 90.872445,519.25 C 89.628574,517.66394 89.663944,517.62857 91.25,518.87244 92.915748,520.17881 93.445479,521 92.622445,521 c -0.207656,0 -0.995156,-0.7875 -1.75,-1.75 z M 420,519.62244 c 0,-0.20765 0.7875,-0.99515 1.75,-1.75 1.58606,-1.24387 1.62143,-1.2085 0.37756,0.37756 C 420.82119,519.91575 420,520.44548 420,519.62244 Z M 82.924314,512.25 80.5,509.5 l 2.75,2.42431 C 85.820289,514.1902 86.458588,515 85.674314,515 c -0.179127,0 -1.416627,-1.2375 -2.75,-2.75 z M 428,512.68709 c 0,-0.1721 1.4625,-1.6346 3.25,-3.25 l 3.25,-2.93709 -2.93709,3.25 C 428.82513,512.77946 428,513.45965 428,512.68709 Z M 442.5,498 c 2.14824,-2.2 4.1309,-4 4.4059,-4 0.275,0 -1.25766,1.8 -3.4059,4 -2.14824,2.2 -4.1309,4 -4.4059,4 -0.275,0 1.25766,-1.8 3.4059,-4 z M 65.924314,495.25 63.5,492.5 l 2.75,2.42431 C 68.820289,497.1902 69.458588,498 68.674314,498 c -0.179127,0 -1.416627,-1.2375 -2.75,-2.75 z M 450,489.62244 c 0,-0.20765 0.7875,-0.99515 1.75,-1.75 1.58606,-1.24387 1.62143,-1.2085 0.37756,0.37756 C 450.82119,489.91575 450,490.44548 450,489.62244 Z M 58.872445,487.25 c -1.243871,-1.58606 -1.208501,-1.62143 0.377555,-0.37756 0.9625,0.75485 1.75,1.54235 1.75,1.75 0,0.82304 -0.821186,0.29331 -2.127555,-1.37244 z M 455.5,483 c 0.33992,-0.55 0.84303,-1 1.11803,-1 0.275,0 0.22189,0.45 -0.11803,1 -0.33992,0.55 -0.84303,1 -1.11803,1 -0.275,0 -0.22189,-0.45 0.11803,-1 z M 54.404508,481.84549 c -0.442079,-0.7153 -0.274316,-0.88306 0.440984,-0.44098 C 55.480471,481.79695 56,482.31648 56,482.55902 c 0,0.83414 -0.883051,0.43922 -1.595492,-0.71353 z m 41.041641,0.0674 c -0.369536,-0.59793 -0.267523,-1.4915 0.226698,-1.98572 0.531442,-0.53144 0.898582,-0.0873 0.898582,1.08714 0,2.27223 -0.185011,2.41996 -1.12528,0.89858 z M 106.5,476 c 3.26557,-3.3 6.16239,-6 6.43739,-6 0.275,0 -2.17182,2.7 -5.43739,6 -3.26557,3.3 -6.16239,6 -6.43739,6 -0.275,0 2.17182,-2.7 5.43739,-6 z m -55.095492,1.84549 c -0.442079,-0.7153 -0.274316,-0.88306 0.440984,-0.44098 C 52.480471,477.79695 53,478.31648 53,478.55902 c 0,0.83414 -0.883051,0.43922 -1.595492,-0.71353 z m -3,-4 c -0.442079,-0.7153 -0.274316,-0.88306 0.440984,-0.44098 C 49.480471,473.79695 50,474.31648 50,474.55902 c 0,0.83414 -0.883051,0.43922 -1.595492,-0.71353 z M 100.5,474 c 0.33992,-0.55 0.84303,-1 1.11803,-1 0.275,0 0.22189,0.45 -0.11803,1 -0.33992,0.55 -0.84303,1 -1.11803,1 -0.275,0 -0.22189,-0.45 0.11803,-1 z m 4,-5 c 0.33992,-0.55 0.84303,-1 1.11803,-1 0.275,0 0.22189,0.45 -0.11803,1 -0.33992,0.55 -0.84303,1 -1.11803,1 -0.275,0 -0.22189,-0.45 0.11803,-1 z m -61.095492,-2.15451 c -0.442079,-0.7153 -0.274316,-0.88306 0.440984,-0.44098 C 44.480471,466.79695 45,467.31648 45,467.55902 c 0,0.83414 -0.883051,0.43922 -1.595492,-0.71353 z m -2,-3 c -0.442079,-0.7153 -0.274316,-0.88306 0.440984,-0.44098 C 42.480471,463.79695 43,464.31648 43,464.55902 c 0,0.83414 -0.883051,0.43922 -1.595492,-0.71353 z M 108.5,464 c 0.33992,-0.55 0.84303,-1 1.11803,-1 0.275,0 0.22189,0.45 -0.11803,1 -0.33992,0.55 -0.84303,1 -1.11803,1 -0.275,0 -0.22189,-0.45 0.11803,-1 z m 364,-5 c 0.33992,-0.55 0.84303,-1 1.11803,-1 0.275,0 0.22189,0.45 -0.11803,1 -0.33992,0.55 -0.84303,1 -1.11803,1 -0.275,0 -0.22189,-0.45 0.11803,-1 z m -355,-6 c 0.33992,-0.55 0.84303,-1 1.11803,-1 0.275,0 0.22189,0.45 -0.11803,1 -0.33992,0.55 -0.84303,1 -1.11803,1 -0.275,0 -0.22189,-0.45 0.11803,-1 z m 28,-17 c 8.78711,-8.8 16.20156,-16 16.47656,-16 0.275,0 -6.68945,7.2 -15.47656,16 -8.78711,8.8 -16.20156,16 -16.47656,16 -0.275,0 6.68945,-7.2 15.47656,-16 z m -24,12 c 0.33992,-0.55 0.84303,-1 1.11803,-1 0.275,0 0.22189,0.45 -0.11803,1 -0.33992,0.55 -0.84303,1 -1.11803,1 -0.275,0 -0.22189,-0.45 0.11803,-1 z m 4,-5 c 0.33992,-0.55 0.84303,-1 1.11803,-1 0.275,0 0.22189,0.45 -0.11803,1 -0.33992,0.55 -0.84303,1 -1.11803,1 -0.275,0 -0.22189,-0.45 0.11803,-1 z m 4,-5 c 0.33992,-0.55 0.84303,-1 1.11803,-1 0.275,0 0.22189,0.45 -0.11803,1 -0.33992,0.55 -0.84303,1 -1.11803,1 -0.275,0 -0.22189,-0.45 0.11803,-1 z m 5,-6 c 0.33992,-0.55 0.84303,-1 1.11803,-1 0.275,0 0.22189,0.45 -0.11803,1 -0.33992,0.55 -0.84303,1 -1.11803,1 -0.275,0 -0.22189,-0.45 0.11803,-1 z m 4,-5 c 0.33992,-0.55 0.84303,-1 1.11803,-1 0.275,0 0.22189,0.45 -0.11803,1 -0.33992,0.55 -0.84303,1 -1.11803,1 -0.275,0 -0.22189,-0.45 0.11803,-1 z m 7.5,-9.37756 c 0,-0.20765 0.7875,-0.99515 1.75,-1.75 1.58606,-1.24387 1.62143,-1.2085 0.37756,0.37756 C 146.82119,417.91575 146,418.44548 146,417.62244 Z M 151.5,411 c 0.33992,-0.55 0.84303,-1 1.11803,-1 0.275,0 0.22189,0.45 -0.11803,1 -0.33992,0.55 -0.84303,1 -1.11803,1 -0.275,0 -0.22189,-0.45 0.11803,-1 z m 4,-5 c 0.33992,-0.55 0.84303,-1 1.11803,-1 0.275,0 0.22189,0.45 -0.11803,1 -0.33992,0.55 -0.84303,1 -1.11803,1 -0.275,0 -0.22189,-0.45 0.11803,-1 z M 498,405 c 0,-0.73333 0.3,-1.03333 0.66667,-0.66667 0.36666,0.36667 0.36666,0.96667 0,1.33334 C 498.3,406.03333 498,405.73333 498,405 Z M 273.36996,395 c 0,-5.775 0.16528,-8.1375 0.36728,-5.25 0.202,2.8875 0.202,7.6125 0,10.5 -0.202,2.8875 -0.36728,0.525 -0.36728,-5.25 z M 159,401.62244 c 0,-0.20765 0.7875,-0.99515 1.75,-1.75 1.58606,-1.24387 1.62143,-1.2085 0.37756,0.37756 C 159.82119,401.91575 159,402.44548 159,401.62244 Z M 187,395.5 c 2.98742,-3.025 5.65668,-5.5 5.93168,-5.5 0.275,0 -1.94426,2.475 -4.93168,5.5 -2.98742,3.025 -5.65668,5.5 -5.93168,5.5 -0.275,0 1.94426,-2.475 4.93168,-5.5 z m 313,3.5 c 0,-0.73333 0.3,-1.03333 0.66667,-0.66667 0.36666,0.36667 0.36666,0.96667 0,1.33334 C 500.3,400.03333 500,399.73333 500,399 Z M 10,396 c 0,-0.73333 0.3,-1.03333 0.666667,-0.66667 0.366666,0.36667 0.366666,0.96667 0,1.33334 C 10.3,397.03333 10,396.73333 10,396 Z m 154.5,-1 c 0.33992,-0.55 0.84303,-1 1.11803,-1 0.275,0 0.22189,0.45 -0.11803,1 -0.33992,0.55 -0.84303,1 -1.11803,1 -0.275,0 -0.22189,-0.45 0.11803,-1 z m 3.5,-4.37756 c 0,-0.20765 0.7875,-0.99515 1.75,-1.75 1.58606,-1.24387 1.62143,-1.2085 0.37756,0.37756 C 168.82119,390.91575 168,391.44548 168,390.62244 Z M 8,389 c 0,-0.73333 0.3,-1.03333 0.6666667,-0.66667 0.3666666,0.36667 0.3666666,0.96667 0,1.33334 C 8.3,390.03333 8,389.73333 8,389 Z m 495,-1 c 0,-0.73333 0.3,-1.03333 0.66667,-0.66667 0.36666,0.36667 0.36666,0.96667 0,1.33334 C 503.3,389.03333 503,388.73333 503,388 Z M 7,385 c 0,-0.73333 0.3,-1.03333 0.6666667,-0.66667 0.3666666,0.36667 0.3666666,0.96667 0,1.33334 C 7.3,386.03333 7,385.73333 7,385 Z m 165.5,0 c 0.33992,-0.55 0.84303,-1 1.11803,-1 0.275,0 0.22189,0.45 -0.11803,1 -0.33992,0.55 -0.84303,1 -1.11803,1 -0.275,0 -0.22189,-0.45 0.11803,-1 z m 30.83333,0.33333 c 0.36667,-0.36666 0.96667,-0.36666 1.33334,0 C 205.03333,385.7 204.73333,386 204,386 c -0.73333,0 -1.03333,-0.3 -0.66667,-0.66667 z M 6,381 c 0,-0.73333 0.3,-1.03333 0.6666667,-0.66667 0.3666666,0.36667 0.3666666,0.96667 0,1.33334 C 6.3,382.03333 6,381.73333 6,381 Z m 170,-0.37756 c 0,-0.20765 0.7875,-0.99515 1.75,-1.75 1.58606,-1.24387 1.62143,-1.2085 0.37756,0.37756 C 176.82119,380.91575 176,381.44548 176,380.62244 Z M 505,380 c 0,-0.73333 0.3,-1.03333 0.66667,-0.66667 0.36666,0.36667 0.36666,0.96667 0,1.33334 C 505.3,381.03333 505,380.73333 505,380 Z M 5,376 c 0,-0.73333 0.3,-1.03333 0.6666667,-0.66667 0.3666666,0.36667 0.3666666,0.96667 0,1.33334 C 5.3,377.03333 5,376.73333 5,376 Z m 176.5,-2 c 0.33992,-0.55 0.84303,-1 1.11803,-1 0.275,0 0.22189,0.45 -0.11803,1 -0.33992,0.55 -0.84303,1 -1.11803,1 -0.275,0 -0.22189,-0.45 0.11803,-1 z M 507,370 c 0,-0.73333 0.3,-1.03333 0.66667,-0.66667 0.36666,0.36667 0.36666,0.96667 0,1.33334 C 507.3,371.03333 507,370.73333 507,370 Z m -322,-0.37756 c 0,-0.20765 0.7875,-0.99515 1.75,-1.75 1.58606,-1.24387 1.62143,-1.2085 0.37756,0.37756 C 185.82119,369.91575 185,370.44548 185,369.62244 Z m 82.75,-1.36895 c 6.1875,-0.17544 16.3125,-0.17544 22.5,0 6.1875,0.17545 1.125,0.319 -11.25,0.319 -12.375,0 -17.4375,-0.14355 -11.25,-0.319 z m 41.0625,-0.9366 c 0.72187,-0.28887 1.58438,-0.25335 1.91667,0.0789 0.33229,0.33229 -0.25834,0.56864 -1.3125,0.52522 -1.16495,-0.048 -1.4019,-0.28494 -0.60417,-0.60416 z M 3.0789474,365.41667 c 0.047984,-1.16495 0.2849403,-1.4019 0.6041666,-0.60417 0.2888706,0.72187 0.2533443,1.58438 -0.078947,1.91667 -0.3322917,0.33229 -0.5686404,-0.25834 -0.5252196,-1.3125 z m 311.2543826,0.91666 c 0.36667,-0.36666 0.96667,-0.36666 1.33334,0 C 316.03333,366.7 315.73333,367 315,367 c -0.73333,0 -1.03333,-0.3 -0.66667,-0.66667 z M 508,365 c 0,-0.73333 0.3,-1.03333 0.66667,-0.66667 0.36666,0.36667 0.36666,0.96667 0,1.33334 C 508.3,366.03333 508,365.73333 508,365 Z m -317.5,-2 c 0.33992,-0.55 0.84303,-1 1.11803,-1 0.275,0 0.22189,0.45 -0.11803,1 -0.33992,0.55 -0.84303,1 -1.11803,1 -0.275,0 -0.22189,-0.45 0.11803,-1 z M 2,359 c 0,-0.73333 0.3,-1.03333 0.6666667,-0.66667 0.3666666,0.36667 0.3666666,0.96667 0,1.33334 C 2.3,360.03333 2,359.73333 2,359 Z m 192.5,-1 c 0.33992,-0.55 0.84303,-1 1.11803,-1 0.275,0 0.22189,0.45 -0.11803,1 -0.33992,0.55 -0.84303,1 -1.11803,1 -0.275,0 -0.22189,-0.45 0.11803,-1 z m 314.5,0 c 0,-0.73333 0.3,-1.03333 0.66667,-0.66667 0.36666,0.36667 0.36666,0.96667 0,1.33334 C 509.3,359.03333 509,358.73333 509,358 Z m -311,-4.37756 c 0,-0.20765 0.7875,-0.99515 1.75,-1.75 1.58606,-1.24387 1.62143,-1.2085 0.37756,0.37756 C 198.82119,353.91575 198,354.44548 198,353.62244 Z M 1.1949487,350.5 c 0.02038,-1.65 0.2444986,-2.20394 0.498042,-1.23097 0.2535434,0.97297 0.2368691,2.32297 -0.037054,3 C 1.3820136,352.94606 1.174569,352.15 1.1949487,350.5 Z M 344.5,352 c 0.33992,-0.55 0.84303,-1 1.11803,-1 0.275,0 0.22189,0.45 -0.11803,1 -0.33992,0.55 -0.84303,1 -1.11803,1 -0.275,0 -0.22189,-0.45 0.11803,-1 z m 165.69495,-2.5 c 0.0204,-1.65 0.2445,-2.20394 0.49804,-1.23097 0.25354,0.97297 0.23687,2.32297 -0.0371,3 -0.27393,0.67703 -0.48137,-0.11903 -0.46099,-1.76903 z M 202.5,348 c 0.33992,-0.55 0.84303,-1 1.11803,-1 0.275,0 0.22189,0.45 -0.11803,1 -0.33992,0.55 -0.84303,1 -1.11803,1 -0.275,0 -0.22189,-0.45 0.11803,-1 z m 3.5,-4.37756 c 0,-0.20765 0.7875,-0.99515 1.75,-1.75 1.58606,-1.24387 1.62143,-1.2085 0.37756,0.37756 C 206.82119,343.91575 206,344.44548 206,343.62244 Z M 355.5,341 c 0.33992,-0.55 0.84303,-1 1.11803,-1 0.275,0 0.22189,0.45 -0.11803,1 -0.33992,0.55 -0.84303,1 -1.11803,1 -0.275,0 -0.22189,-0.45 0.11803,-1 z M 0.2320027,337 c 0,-1.925 0.20579527,-2.7125 0.45732281,-1.75 0.25152755,0.9625 0.25152755,2.5375 0,3.5 C 0.43779797,339.7125 0.2320027,338.925 0.2320027,337 Z M 211.5,337 c 0.33992,-0.55 0.84303,-1 1.11803,-1 0.275,0 0.22189,0.45 -0.11803,1 -0.33992,0.55 -0.84303,1 -1.11803,1 -0.275,0 -0.22189,-0.45 0.11803,-1 z m 299.65789,-2 c 0,-1.375 0.22698,-1.9375 0.50439,-1.25 0.27741,0.6875 0.27741,1.8125 0,2.5 -0.27741,0.6875 -0.50439,0.125 -0.50439,-1.25 z M 216.5,331 c 0.33992,-0.55 0.84303,-1 1.11803,-1 0.275,0 0.22189,0.45 -0.11803,1 -0.33992,0.55 -0.84303,1 -1.11803,1 -0.275,0 -0.22189,-0.45 0.11803,-1 z m 4,-5 c 0.33992,-0.55 0.84303,-1 1.11803,-1 0.275,0 0.22189,0.45 -0.11803,1 -0.33992,0.55 -0.84303,1 -1.11803,1 -0.275,0 -0.22189,-0.45 0.11803,-1 z m 4,-5 c 0.33992,-0.55 0.84303,-1 1.11803,-1 0.275,0 0.22189,0.45 -0.11803,1 -0.33992,0.55 -0.84303,1 -1.11803,1 -0.275,0 -0.22189,-0.45 0.11803,-1 z m 4,-5 c 0.33992,-0.55 0.84303,-1 1.11803,-1 0.275,0 0.22189,0.45 -0.11803,1 -0.33992,0.55 -0.84303,1 -1.11803,1 -0.275,0 -0.22189,-0.45 0.11803,-1 z m 282.65789,-4 c 0,-1.375 0.22698,-1.9375 0.50439,-1.25 0.27741,0.6875 0.27741,1.8125 0,2.5 -0.27741,0.6875 -0.50439,0.125 -0.50439,-1.25 z M 0,312 c 0,-0.73333 0.3,-1.03333 0.66666667,-0.66667 0.36666663,0.36667 0.36666663,0.96667 0,1.33334 C 0.3,313.03333 0,312.73333 0,312 Z m 371,0 c 0,-0.73333 0.3,-1.03333 0.66667,-0.66667 0.36666,0.36667 0.36666,0.96667 0,1.33334 C 371.3,313.03333 371,312.73333 371,312 Z M 0.07894737,308.41667 c 0.04798392,-1.16495 0.2849403,-1.4019 0.60416667,-0.60417 0.28887061,0.72187 0.25334429,1.58438 -0.0789474,1.91667 -0.33229167,0.33229 -0.56864035,-0.25834 -0.52521927,-1.3125 z M 237.5,305 c 0.33992,-0.55 0.84303,-1 1.11803,-1 0.275,0 0.22189,0.45 -0.11803,1 -0.33992,0.55 -0.84303,1 -1.11803,1 -0.275,0 -0.22189,-0.45 0.11803,-1 z M 374,301 c 0,-0.73333 0.3,-1.03333 0.66667,-0.66667 0.36666,0.36667 0.36666,0.96667 0,1.33334 C 374.3,302.03333 374,301.73333 374,301 Z m -132.5,-1 c 0.33992,-0.55 0.84303,-1 1.11803,-1 0.275,0 0.22189,0.45 -0.11803,1 -0.33992,0.55 -0.84303,1 -1.11803,1 -0.275,0 -0.22189,-0.45 0.11803,-1 z m 268.69495,-2.5 c 0.0204,-1.65 0.2445,-2.20394 0.49804,-1.23097 0.25354,0.97297 0.23687,2.32297 -0.0371,3 -0.27393,0.67703 -0.48137,-0.11903 -0.46099,-1.76903 z M 1.1578947,296 c 0,-1.375 0.2269737,-1.9375 0.504386,-1.25 0.2774123,0.6875 0.2774123,1.8125 0,2.5 -0.2774123,0.6875 -0.504386,0.125 -0.504386,-1.25 z M 245,295.62244 c 0,-0.20765 0.7875,-0.99515 1.75,-1.75 1.58606,-1.24387 1.62143,-1.2085 0.37756,0.37756 C 245.82119,295.91575 245,296.44548 245,295.62244 Z M 376.19495,288.5 c 0.0204,-1.65 0.2445,-2.20394 0.49804,-1.23097 0.25354,0.97297 0.23687,2.32297 -0.0371,3 -0.27393,0.67703 -0.48137,-0.11903 -0.46099,-1.76903 z M 250.5,289 c 0.33992,-0.55 0.84303,-1 1.11803,-1 0.275,0 0.22189,0.45 -0.11803,1 -0.33992,0.55 -0.84303,1 -1.11803,1 -0.275,0 -0.22189,-0.45 0.11803,-1 z m 258.5,0 c 0,-0.73333 0.3,-1.03333 0.66667,-0.66667 0.36666,0.36667 0.36666,0.96667 0,1.33334 C 509.3,290.03333 509,289.73333 509,289 Z M 2,288 c 0,-0.73333 0.3,-1.03333 0.6666667,-0.66667 0.3666666,0.36667 0.3666666,0.96667 0,1.33334 C 2.3,289.03333 2,288.73333 2,288 Z m 252.5,-4 c 0.33992,-0.55 0.84303,-1 1.11803,-1 0.275,0 0.22189,0.45 -0.11803,1 -0.33992,0.55 -0.84303,1 -1.11803,1 -0.275,0 -0.22189,-0.45 0.11803,-1 z M 3.0789474,281.41667 c 0.047984,-1.16495 0.2849403,-1.4019 0.6041666,-0.60417 0.2888706,0.72187 0.2533443,1.58438 -0.078947,1.91667 -0.3322917,0.33229 -0.5686404,-0.25834 -0.5252196,-1.3125 z M 508,282 c 0,-0.73333 0.3,-1.03333 0.66667,-0.66667 0.36666,0.36667 0.36666,0.96667 0,1.33334 C 508.3,283.03333 508,282.73333 508,282 Z m -249.5,-3 c 0.33992,-0.55 0.84303,-1 1.11803,-1 0.275,0 0.22189,0.45 -0.11803,1 -0.33992,0.55 -0.84303,1 -1.11803,1 -0.275,0 -0.22189,-0.45 0.11803,-1 z M 507,277 c 0,-0.73333 0.3,-1.03333 0.66667,-0.66667 0.36666,0.36667 0.36666,0.96667 0,1.33334 C 507.3,278.03333 507,277.73333 507,277 Z M 5,271 c 0,-0.73333 0.3,-1.03333 0.6666667,-0.66667 0.3666666,0.36667 0.3666666,0.96667 0,1.33334 C 5.3,272.03333 5,271.73333 5,271 Z m 262.5,-3 c 0.33992,-0.55 0.84303,-1 1.11803,-1 0.275,0 0.22189,0.45 -0.11803,1 -0.33992,0.55 -0.84303,1 -1.11803,1 -0.275,0 -0.22189,-0.45 0.11803,-1 z M 505,267 c 0,-0.73333 0.3,-1.03333 0.66667,-0.66667 0.36666,0.36667 0.36666,0.96667 0,1.33334 C 505.3,268.03333 505,267.73333 505,267 Z M 6,266 c 0,-0.73333 0.3,-1.03333 0.6666667,-0.66667 0.3666666,0.36667 0.3666666,0.96667 0,1.33334 C 6.3,267.03333 6,266.73333 6,266 Z m 370.19495,-2.5 c 0.0204,-1.65 0.2445,-2.20394 0.49804,-1.23097 0.25354,0.97297 0.23687,2.32297 -0.0371,3 -0.27393,0.67703 -0.48137,-0.11903 -0.46099,-1.76903 z M 271.5,263 c 0.33992,-0.55 0.84303,-1 1.11803,-1 0.275,0 0.22189,0.45 -0.11803,1 -0.33992,0.55 -0.84303,1 -1.11803,1 -0.275,0 -0.22189,-0.45 0.11803,-1 z M 8,258 c 0,-0.73333 0.3,-1.03333 0.6666667,-0.66667 0.3666666,0.36667 0.3666666,0.96667 0,1.33334 C 8.3,259.03333 8,258.73333 8,258 Z m 267.5,0 c 0.33992,-0.55 0.84303,-1 1.11803,-1 0.275,0 0.22189,0.45 -0.11803,1 -0.33992,0.55 -0.84303,1 -1.11803,1 -0.275,0 -0.22189,-0.45 0.11803,-1 z m 3.5,-4.37756 c 0,-0.20765 0.7875,-0.99515 1.75,-1.75 1.58606,-1.24387 1.62143,-1.2085 0.37756,0.37756 C 279.82119,253.91575 279,254.44548 279,253.62244 Z M 10,251 c 0,-0.73333 0.3,-1.03333 0.666667,-0.66667 0.366666,0.36667 0.366666,0.96667 0,1.33334 C 10.3,252.03333 10,251.73333 10,251 Z m 364.25218,-5.5 c 0.0111,-2.2 0.21589,-2.98225 0.45508,-1.73834 0.23919,1.24391 0.23011,3.04391 -0.0202,4 -0.25029,0.95609 -0.446,-0.0617 -0.4349,-2.26166 z M 500,248 c 0,-0.73333 0.3,-1.03333 0.66667,-0.66667 0.36666,0.36667 0.36666,0.96667 0,1.33334 C 500.3,249.03333 500,248.73333 500,248 Z m -215.5,-1 c 0.33992,-0.55 0.84303,-1 1.11803,-1 0.275,0 0.22189,0.45 -0.11803,1 -0.33992,0.55 -0.84303,1 -1.11803,1 -0.275,0 -0.22189,-0.45 0.11803,-1 z m 3.5,-4.37756 c 0,-0.20765 0.7875,-0.99515 1.75,-1.75 1.58606,-1.24387 1.62143,-1.2085 0.37756,0.37756 C 288.82119,242.91575 288,243.44548 288,242.62244 Z M 498,242 c 0,-0.73333 0.3,-1.03333 0.66667,-0.66667 0.36666,0.36667 0.36666,0.96667 0,1.33334 C 498.3,243.03333 498,242.73333 498,242 Z m -206,-4.37756 c 0,-0.20765 0.7875,-0.99515 1.75,-1.75 1.58606,-1.24387 1.62143,-1.2085 0.37756,0.37756 C 292.82119,237.91575 292,238.44548 292,237.62244 Z M 374.232,232 c 0,-1.925 0.2058,-2.7125 0.45733,-1.75 0.25152,0.9625 0.25152,2.5375 0,3.5 -0.25153,0.9625 -0.45733,0.175 -0.45733,-1.75 z M 297.5,231 c 0.33992,-0.55 0.84303,-1 1.11803,-1 0.275,0 0.22189,0.45 -0.11803,1 -0.33992,0.55 -0.84303,1 -1.11803,1 -0.275,0 -0.22189,-0.45 0.11803,-1 z m 3.5,-4.37756 c 0,-0.20765 0.7875,-0.99515 1.75,-1.75 1.58606,-1.24387 1.62143,-1.2085 0.37756,0.37756 C 301.82119,226.91575 301,227.44548 301,226.62244 Z m 46.25,-7.31177 c 0.9625,-0.25152 2.5375,-0.25152 3.5,0 0.9625,0.25153 0.175,0.45733 -1.75,0.45733 -1.925,0 -2.7125,-0.2058 -1.75,-0.45733 z M 376,219 c 0,-0.73333 0.3,-1.03333 0.66667,-0.66667 0.36666,0.36667 0.36666,0.96667 0,1.33334 C 376.3,220.03333 376,219.73333 376,219 Z m -21,-1.37756 c 0,-0.20765 0.7875,-0.99515 1.75,-1.75 1.58606,-1.24387 1.62143,-1.2085 0.37756,0.37756 C 355.82119,217.91575 355,218.44548 355,217.62244 Z M 306.15789,214 c 0,-1.375 0.22698,-1.9375 0.50439,-1.25 0.27741,0.6875 0.27741,1.8125 0,2.5 -0.27741,0.6875 -0.50439,0.125 -0.50439,-1.25 z M 24,214 c 0,-0.73333 0.3,-1.03333 0.666667,-0.66667 0.366666,0.36667 0.366666,0.96667 0,1.33334 C 24.3,215.03333 24,214.73333 24,214 Z m 314,-2 c 0,-0.73333 0.3,-1.03333 0.66667,-0.66667 0.36666,0.36667 0.36666,0.96667 0,1.33334 C 338.3,213.03333 338,212.73333 338,212 Z m 48.5,-8 c 2.14824,-2.2 4.1309,-4 4.4059,-4 0.275,0 -1.25766,1.8 -3.4059,4 -2.14824,2.2 -4.1309,4 -4.4059,4 -0.275,0 1.25766,-1.8 3.4059,-4 z m -27.5,2 c 0,-0.73333 0.3,-1.03333 0.66667,-0.66667 0.36666,0.36667 0.36666,0.96667 0,1.33334 C 359.3,207.03333 359,206.73333 359,206 Z m -13.66667,-7.66667 c 0.36667,-0.36666 0.96667,-0.36666 1.33334,0 C 347.03333,198.7 346.73333,199 346,199 c -0.73333,0 -1.03333,-0.3 -0.66667,-0.66667 z m 30.07118,-4.48784 c -0.44208,-0.7153 -0.27432,-0.88306 0.44098,-0.44098 0.63498,0.39244 1.15451,0.91197 1.15451,1.15451 0,0.83414 -0.88305,0.43922 -1.59549,-0.71353 z m 9.92882,-0.51216 c 0.36667,-0.36666 0.96667,-0.36666 1.33334,0 C 387.03333,193.7 386.73333,194 386,194 c -0.73333,0 -1.03333,-0.3 -0.66667,-0.66667 z m 9,-3 c 0.36667,-0.36666 0.96667,-0.36666 1.33334,0 C 396.03333,190.7 395.73333,191 395,191 c -0.73333,0 -1.03333,-0.3 -0.66667,-0.66667 z M 369.92431,187.25 367.5,184.5 l 2.75,2.42431 c 2.57029,2.26589 3.20859,3.07569 2.42431,3.07569 -0.17912,0 -1.41662,-1.2375 -2.75,-2.75 z M 317,188.62244 c 0,-0.20765 0.7875,-0.99515 1.75,-1.75 1.58606,-1.24387 1.62143,-1.2085 0.37756,0.37756 C 317.82119,188.91575 317,189.44548 317,188.62244 Z M 403,188 c 0,-0.73333 0.3,-1.03333 0.66667,-0.66667 0.36666,0.36667 0.36666,0.96667 0,1.33334 C 403.3,189.03333 403,188.73333 403,188 Z m 69.40451,-0.15451 c -0.44208,-0.7153 -0.27432,-0.88306 0.44098,-0.44098 0.63498,0.39244 1.15451,0.91197 1.15451,1.15451 0,0.83414 -0.88305,0.43922 -1.59549,-0.71353 z M 336.33333,177.33333 c 0.36667,-0.36666 0.96667,-0.36666 1.33334,0 C 338.03333,177.7 337.73333,178 337,178 c -0.73333,0 -1.03333,-0.3 -0.66667,-0.66667 z m 15,0 c 0.36667,-0.36666 0.96667,-0.36666 1.33334,0 C 353.03333,177.7 352.73333,178 352,178 c -0.73333,0 -1.03333,-0.3 -0.66667,-0.66667 z m -8.0643,-1.02632 c 0.97297,-0.25354 2.32297,-0.23687 3,0.0371 0.67703,0.27393 -0.11903,0.48137 -1.76903,0.46099 -1.65,-0.0204 -2.20394,-0.2445 -1.23097,-0.49804 z m 119.13548,-3.46152 c -0.44208,-0.7153 -0.27432,-0.88306 0.44098,-0.44098 1.15275,0.71244 1.54767,1.59549 0.71353,1.59549 -0.24254,0 -0.76207,-0.51953 -1.15451,-1.15451 z m -3,-4 c -0.44208,-0.7153 -0.27432,-0.88306 0.44098,-0.44098 0.63498,0.39244 1.15451,0.91197 1.15451,1.15451 0,0.83414 -0.88305,0.43922 -1.59549,-0.71353 z M 54.5,165 c 0.339919,-0.55 0.843034,-1 1.118034,-1 0.275,0 0.221885,0.45 -0.118034,1 -0.339919,0.55 -0.843034,1 -1.118034,1 -0.275,0 -0.221885,-0.45 0.118034,-1 z m 400.90451,-1.15451 c -0.44208,-0.7153 -0.27432,-0.88306 0.44098,-0.44098 1.15275,0.71244 1.54767,1.59549 0.71353,1.59549 -0.24254,0 -0.76207,-0.51953 -1.15451,-1.15451 z M 58.5,160 c 0.339919,-0.55 0.843034,-1 1.118034,-1 0.275,0 0.221885,0.45 -0.118034,1 -0.339919,0.55 -0.843034,1 -1.118034,1 -0.275,0 -0.221885,-0.45 0.118034,-1 z m 392.90451,-1.15451 c -0.44208,-0.7153 -0.27432,-0.88306 0.44098,-0.44098 1.15275,0.71244 1.54767,1.59549 0.71353,1.59549 -0.24254,0 -0.76207,-0.51953 -1.15451,-1.15451 z M 64,153.62244 c 0,-0.20765 0.7875,-0.99515 1.75,-1.75 1.586056,-1.24387 1.621426,-1.2085 0.377555,0.37756 C 64.821186,153.91575 64,154.44548 64,153.62244 Z M 444.40499,150.75 442.5,148.5 l 2.25,1.90499 c 1.2375,1.04774 2.25,2.06024 2.25,2.25 0,0.80025 -0.80479,0.20945 -2.59501,-1.90499 z m -15.45882,-15.5 -3.44617,-3.75 3.75,3.44617 c 2.0625,1.89539 3.75,3.58289 3.75,3.75 0,0.76362 -0.84622,0.0443 -4.05383,-3.44617 z M 84.5,133 c 0.995486,-1.1 2.034975,-2 2.309975,-2 0.275,0 -0.314489,0.9 -1.309975,2 -0.995486,1.1 -2.034975,2 -2.309975,2 -0.275,0 0.314489,-0.9 1.309975,-2 z m 335.37244,-5.75 c -1.24387,-1.58606 -1.2085,-1.62143 0.37756,-0.37756 1.66575,1.30637 2.19548,2.12756 1.37244,2.12756 -0.20765,0 -0.99515,-0.7875 -1.75,-1.75 z M 91,127.62244 c 0,-0.20765 0.7875,-0.99515 1.75,-1.75 1.586056,-1.24387 1.621426,-1.2085 0.377555,0.37756 C 91.821186,127.91575 91,128.44548 91,127.62244 Z m 323.40451,-4.77695 c -0.44208,-0.7153 -0.27432,-0.88306 0.44098,-0.44098 1.15275,0.71244 1.54767,1.59549 0.71353,1.59549 -0.24254,0 -0.76207,-0.51953 -1.15451,-1.15451 z M 101.5,119 c 0.33992,-0.55 0.84303,-1 1.11803,-1 0.275,0 0.22189,0.45 -0.11803,1 -0.33992,0.55 -0.84303,1 -1.11803,1 -0.275,0 -0.22189,-0.45 0.11803,-1 z m 4,-3 c 0.33992,-0.55 0.84303,-1 1.11803,-1 0.275,0 0.22189,0.45 -0.11803,1 -0.33992,0.55 -0.84303,1 -1.11803,1 -0.275,0 -0.22189,-0.45 0.11803,-1 z m 296.90451,-2.15451 c -0.44208,-0.7153 -0.27432,-0.88306 0.44098,-0.44098 1.15275,0.71244 1.54767,1.59549 0.71353,1.59549 -0.24254,0 -0.76207,-0.51953 -1.15451,-1.15451 z M 166.33333,83.333333 c 0.36667,-0.366666 0.96667,-0.366666 1.33334,0 C 168.03333,83.7 167.73333,84 167,84 c -0.73333,0 -1.03333,-0.3 -0.66667,-0.666667 z m 178,0 c 0.36667,-0.366666 0.96667,-0.366666 1.33334,0 C 346.03333,83.7 345.73333,84 345,84 c -0.73333,0 -1.03333,-0.3 -0.66667,-0.666667 z m -163,-5 c 0.36667,-0.366666 0.96667,-0.366666 1.33334,0 C 183.03333,78.7 182.73333,79 182,79 c -0.73333,0 -1.03333,-0.3 -0.66667,-0.666667 z m 148,0 c 0.36667,-0.366666 0.96667,-0.366666 1.33334,0 C 331.03333,78.7 330.73333,79 330,79 c -0.73333,0 -1.03333,-0.3 -0.66667,-0.666667 z m -141,-2 c 0.36667,-0.366666 0.96667,-0.366666 1.33334,0 C 190.03333,76.7 189.73333,77 189,77 c -0.73333,0 -1.03333,-0.3 -0.66667,-0.666667 z m 134,0 c 0.36667,-0.366666 0.96667,-0.366666 1.33334,0 C 324.03333,76.7 323.73333,77 323,77 c -0.73333,0 -1.03333,-0.3 -0.66667,-0.666667 z m -8,-2 c 0.36667,-0.366666 0.96667,-0.366666 1.33334,0 C 316.03333,74.7 315.73333,75 315,75 c -0.73333,0 -1.03333,-0.3 -0.66667,-0.666667 z m -114,-1 c 0.36667,-0.366666 0.96667,-0.366666 1.33334,0 C 202.03333,73.7 201.73333,74 201,74 c -0.73333,0 -1.03333,-0.3 -0.66667,-0.666667 z m 110,0 c 0.36667,-0.366666 0.96667,-0.366666 1.33334,0 C 312.03333,73.7 311.73333,74 311,74 c -0.73333,0 -1.03333,-0.3 -0.66667,-0.666667 z M 210.8125,71.316886 c 0.72187,-0.288871 1.58437,-0.253344 1.91667,0.07895 0.33229,0.332292 -0.25834,0.568641 -1.3125,0.52522 -1.16495,-0.04798 -1.4019,-0.284941 -0.60417,-0.604167 z m 89,0 c 0.72187,-0.288871 1.58438,-0.253344 1.91667,0.07895 0.33229,0.332292 -0.25834,0.568641 -1.3125,0.52522 -1.16495,-0.04798 -1.4019,-0.284941 -0.60417,-0.604167 z m -83.47917,-0.983553 c 0.36667,-0.366666 0.96667,-0.366666 1.33334,0 C 218.03333,70.7 217.73333,71 217,71 c -0.73333,0 -1.03333,-0.3 -0.66667,-0.666667 z m 78,0 c 0.36667,-0.366666 0.96667,-0.366666 1.33334,0 C 296.03333,70.7 295.73333,71 295,71 c -0.73333,0 -1.03333,-0.3 -0.66667,-0.666667 z M 223.75,69.337719 c 0.6875,-0.277412 1.8125,-0.277412 2.5,0 0.6875,0.277413 0.125,0.504386 -1.25,0.504386 -1.375,0 -1.9375,-0.226973 -1.25,-0.504386 z m 62,0 c 0.6875,-0.277412 1.8125,-0.277412 2.5,0 0.6875,0.277413 0.125,0.504386 -1.25,0.504386 -1.375,0 -1.9375,-0.226973 -1.25,-0.504386 z m -51.9375,-1.020833 c 0.72187,-0.288871 1.58437,-0.253344 1.91667,0.07895 0.33229,0.332292 -0.25834,0.568641 -1.3125,0.52522 -1.16495,-0.04798 -1.4019,-0.284941 -0.60417,-0.604167 z m 43,0 c 0.72187,-0.288871 1.58438,-0.253344 1.91667,0.07895 0.33229,0.332292 -0.25834,0.568641 -1.3125,0.52522 -1.16495,-0.04798 -1.4019,-0.284941 -0.60417,-0.604167 z m -25.0848,-1.038618 c 1.77523,-0.220912 4.92523,-0.224542 7,-0.0081 2.07476,0.216475 0.6223,0.397221 -3.2277,0.401658 -3.85,0.0044 -5.54754,-0.17268 -3.7723,-0.393592 z"
     style="fill:#64ccc8" />
  <path
     inkscape:connector-curvature="0"
     id="path872"
     d="M 235,578.32885 C 171.39094,571.94832 118.27133,547.27133 75,504 13.549372,442.54937 -12.006431,355.61818 6.0358283,269.40992 21.341046,196.27961 69.971209,132.34131 137.10694,97.079343 192.34327,68.06735 257.69713,60.261749 318.0904,75.463409 c 45.72708,11.510018 85.41891,34.143511 119.16698,67.952671 84.12623,84.27847 98.49587,216.18425 34.53761,317.03703 C 424.45809,535.09645 342.37741,579.74258 254.14405,578.83996 245.53982,578.75194 236.925,578.52194 235,578.32885 Z M 146.1485,436.63364 c 30.44827,-30.45803 47.89545,-47.18419 50.8515,-48.75 4.37934,-2.31972 5.24409,-2.39224 32.25,-2.7042 L 257,384.85888 v -7.8036 -7.8036 l 26.25,-0.51394 c 22.88988,-0.44815 27.27394,-0.79439 34.24925,-2.70489 36.56488,-10.01493 59.49996,-44.76273 59.50058,-90.14636 9e-5,-6.93743 -0.47907,-15.03743 -1.06481,-18 -1.45069,-7.33734 -1.47064,-30.35514 -0.0311,-35.88649 2.23051,-8.57062 4.33961,-11.51773 16.10207,-22.5 6.47979,-6.05 11.82927,-11.31284 11.88772,-11.6952 0.0585,-0.38237 -5.75475,1.35179 -12.91824,3.85368 l -13.02452,4.54889 -2.17116,-2.85368 c -6.84314,-8.99434 -15.32526,-14.37103 -25.80741,-16.35893 -14.24311,-2.70115 -30.60816,5.7237 -38.18948,19.66022 -3.1383,5.76906 -5.7829,15.12319 -5.7829,20.45453 0,3.37782 -4.01849,8.64965 -47.59502,62.43959 -26.17726,32.31266 -50.39534,62.17042 -53.81797,66.35059 -5.45869,6.6669 -23.04673,28.34952 -59.7015,73.60031 -5.79175,7.15 -19.39464,23.94045 -30.22862,37.3121 -10.83399,13.37166 -19.437319,24.73416 -19.118509,25.25 C 95.85719,482.57795 96.9458,483 97.957513,483 99.050584,483 118.60511,464.18585 146.1485,436.63364 Z M 341.71171,216.60863 c -5.99679,-5.55764 -3.86936,-14.79675 4.04424,-17.56355 3.75025,-1.31119 4.51671,-1.28548 7.75799,0.26018 4.17296,1.98994 7.0044,7.46923 5.9875,11.58677 -0.35425,1.43438 -1.82118,3.84547 -3.25985,5.35797 -3.55462,3.73703 -10.69437,3.91325 -14.52988,0.35863 z M 400,395 V 385 H 336.5 273 v 10 10 h 63.5 63.5 z"
     style="fill:#11b1ac" />
  <path
     inkscape:connector-curvature="0"
     id="path868"
     d="m 915,591.40599 c -10.74102,-1.94662 -17.17852,-4.7656 -23.1004,-10.11566 -5.29734,-4.78583 -8.32696,-10.17341 -10.83629,-19.27023 C 879.06456,554.77424 879,552.21637 879,480.2701 V 406 h 13.5 13.5 l 0.0174,66.75 c 0.0139,53.62889 0.295,68.0599 1.42973,73.41377 1.62095,7.64789 3.49724,11.68965 7.09836,15.29078 5.03116,5.03115 8.21134,6.04545 18.95455,6.04545 8.74771,0 10.71337,-0.33438 15.6965,-2.67018 10.65684,-4.9953 17.91292,-14.75532 19.87519,-26.73375 0.5042,-3.07784 0.91933,-34.05857 0.92252,-68.84607 L 970,406 h 13.5 13.5 v 90.5 90.5 h -12.96617 -12.96617 l -0.28383,-10.73322 -0.28383,-10.73323 -3.19408,4.98323 c -8.5697,13.36996 -21.93865,20.4276 -39.80592,21.01406 -5.5,0.18053 -11.125,0.12435 -12.5,-0.12485 z M 654,496.5 V 406 h 14 14 V 496.5 587 H 668 654 Z M 725,467 V 347 h 13.99338 13.99338 l 0.25662,71.66271 0.25662,71.6627 11.66093,-15.4127 C 771.57445,466.43572 783.672,450.5 792.04439,439.5 c 8.37238,-11 17.51331,-23.0375 20.31317,-26.75 l 5.09065,-6.75 h 16.30849 16.30848 l -18.75853,23.25 c -10.31719,12.7875 -22.70188,28.12637 -27.52155,34.08637 -7.85,9.70733 -8.64331,11.0618 -7.61408,13 0.63192,1.19 14.50706,25.56363 30.83364,54.16363 16.32659,28.6 30.22043,53.0125 30.8752,54.25 l 1.19051,2.25 -16.28519,-0.0374 -16.28518,-0.0374 -14,-25.12658 c -7.7,-13.81963 -17.3086,-31.01529 -21.35245,-38.2126 -4.04384,-7.19731 -8.84178,-15.77282 -10.66208,-19.0567 -1.8203,-3.28389 -3.6867,-6.07352 -4.14755,-6.1992 -0.46086,-0.12567 -5.90042,6.01338 -12.08792,13.64235 L 753,525.8433 V 556.42165 587 H 739 725 Z M 654,362.5 V 347 h 14 14 v 15.5 15.5 h -14 -14 z m 24,-78.51147 C 667.76074,282.22231 659.26268,277.35031 651.38325,268.72896 637.35355,253.37823 631,228.52635 631,189 c 0,-40.20572 6.31137,-64.23793 21.12775,-80.4494 9.6998,-10.613126 27.14568,-16.22989 42.18976,-13.583138 12.80059,2.252048 24.58691,9.894188 30.3032,19.648308 C 726.03384,117.0271 727.59728,119 728.09502,119 728.61972,119 729,102.40169 729,79.5 V 40 h 13.5 13.5 v 120 120 h -13 -13 v -11 c 0,-6.05 -0.3375,-10.99831 -0.75,-10.99625 -0.4125,0.002 -1.62567,2.13956 -2.69593,4.75 -1.07026,2.61044 -4.22026,7.02252 -7,9.80463 C 709.28335,282.83785 694.6554,286.86151 678,283.98853 Z m 29.8152,-25.39296 C 724.8719,249.7752 731.08513,227.95355 729.62409,182 728.68532,152.47331 724.13631,136.38718 713.84324,126.19599 703.01639,115.4763 684.69695,115.25041 674.2397,125.70767 664.12214,135.82523 660,154.28402 660,189.47258 c 0,42.11808 6.13558,61.88521 21.49272,69.24357 4.41583,2.11584 6.07099,2.35133 14.01274,1.99368 5.84279,-0.26313 10.1659,-1.00564 12.30974,-2.11426 z M 827.5,284.34325 c -9.96977,-1.18667 -19.93145,-5.95893 -26.0151,-12.46285 -15.26717,-16.32184 -17.66971,-50.40184 -4.96543,-70.43467 6.43582,-10.14839 14.60532,-15.2387 33.48053,-20.86133 36.86237,-10.98072 40.17231,-12.17562 45.01525,-16.25069 4.68521,-3.94234 5.98475,-7.90824 5.98475,-18.26408 0,-16.83796 -5.8078,-25.58481 -19.19282,-28.90542 -18.07248,-4.48349 -33.81125,3.32195 -38.69671,19.19113 -1.16076,3.77043 -2.11047,9.28293 -2.11047,12.25 V 154 h -14 -14 l 10e-4,-4.75 c 0.002,-5.99516 2.36781,-19.37058 4.45913,-25.20731 4.75154,-13.26122 14.56443,-22.1354 29.4222,-26.607624 8.61644,-2.593571 26.1869,-3.753832 37.32859,-2.464985 26.48364,3.063572 38.97787,13.137989 42.74151,34.463579 0.65182,3.69333 1.04861,28.61249 1.05094,66 0.004,58.11647 0.0681,60.17184 1.9853,63.31634 1.86707,3.06222 2.31465,3.24987 7.74626,3.24776 l 5.7647,-0.002 -0.31713,9.43867 -0.31713,9.43867 -5.33596,0.66669 c -2.93478,0.36667 -9.35109,0.50778 -14.25848,0.31357 -7.48343,-0.29617 -9.49985,-0.74897 -12.50198,-2.80741 -4.62322,-3.16995 -6.60683,-6.63333 -8.15992,-14.24719 l -1.25838,-6.16906 -3.0673,4.45816 c -9.21142,13.38834 -26.55662,22.2347 -42.67021,21.76255 -2.81243,-0.0824 -6.46351,-0.31052 -8.11351,-0.50692 z m 31.38279,-24.75023 c 7.07519,-3.62947 14.07254,-10.28032 17.69518,-16.81895 L 879.5,237.5 l 0.30856,-27.84556 0.30856,-27.84555 -3.30856,2.4775 c -5.12781,3.83978 -8.52289,5.31039 -24.99259,10.82571 -8.42379,2.82093 -16.58035,5.77519 -18.12571,6.56501 -4.38223,2.23973 -10.64919,8.32205 -12.6837,12.31004 -4.35032,8.52733 -4.29436,27.16756 0.10968,36.53675 4.39928,9.35907 10.9211,12.68159 23.88376,12.16751 6.89001,-0.27324 9.51956,-0.86011 13.88279,-3.09839 z m 214.41041,24.464 c -7.1848,-1.14261 -17.2608,-6.0642 -22.7229,-11.09896 -5.1753,-4.77048 -9.9831,-13.73405 -12.0828,-22.52688 -1.8307,-7.6669 -1.8825,-27.35862 -0.09,-34.0925 2.3264,-8.73772 6.2606,-16.09319 11.2902,-21.1083 8.2413,-8.21768 11.1396,-9.47919 45.3118,-19.72224 20.8971,-6.26387 25.2199,-8.06142 29.3723,-12.21376 4.2362,-4.2362 5.0534,-8.20544 4.4419,-21.57399 -0.3557,-7.77656 -0.8253,-9.84675 -2.9983,-13.22039 -5.4185,-8.41193 -11.0549,-11.43133 -22.848,-12.23965 -11.2926,-0.77402 -18.0626,1.46043 -24.4679,8.07574 -5.8415,6.03299 -8.3174,12.09731 -9.1904,22.5107 L 1068.7094,154 h -13.8549 -13.855 l 0.035,-4.75 c 0.052,-7.04419 2.5611,-19.95188 5.1699,-26.59286 4.7281,-12.03605 15.1305,-21.25944 28.2952,-25.088266 9.5947,-2.79051 25.8583,-3.898868 37.823,-2.57762 22.8113,2.519015 34.4577,9.887146 40.8817,25.863926 2.2581,5.61596 2.2723,5.97716 2.7825,70.64482 0.3959,50.1779 0.8044,65.51038 1.7917,67.23819 1.5135,2.64894 4.7084,3.61614 10.2114,3.09135 l 4.0097,-0.38239 v 9.64558 9.64559 l -3.75,0.61983 c -2.0625,0.34091 -8.1554,0.62479 -13.5398,0.63084 -15.226,0.0171 -20.4049,-3.49328 -23.5761,-15.98051 -1.7575,-6.92077 -1.9481,-7.22448 -3.1385,-5.00035 -1.9426,3.62978 -9.9927,11.89123 -14.8343,15.22369 -10.2132,7.02971 -25.7251,10.07435 -39.8681,7.8252 z m 33.9266,-24.5232 c 6.8526,-3.38902 14.58,-10.8817 17.879,-17.33589 2.3409,-4.57991 2.4086,-5.40053 2.6968,-32.66511 l 0.2957,-27.96719 -2.2957,2.10434 c -3.6101,3.30933 -9.5771,5.94823 -25.6728,11.35393 -17.4816,5.87119 -22.8076,8.6217 -27.6506,14.27966 -5.0684,5.92119 -6.773,12.6987 -6.3138,25.10317 0.3268,8.8286 0.7634,10.92381 3.3586,16.11932 2.0131,4.03003 4.2836,6.84827 6.983,8.66759 5.128,3.45611 6.2759,3.69313 16.5,3.4069 7.0149,-0.19638 9.4993,-0.73219 14.2198,-3.06672 z M 983,280.63059 c -9.18799,-2.66894 -14.08767,-6.66352 -17.78702,-14.50131 -1.55799,-3.30091 -1.73904,-10.03062 -2.00096,-74.37928 L 962.92403,121 H 949.46202 936 V 110 99 H 949.5 963 L 962.998,72.75 962.996,46.5 976.49769,46.804116 990,47.108231 V 73.054116 99 h 16 16 v 11 11 h -16.0356 -16.03565 l 0.28563,62.75 c 0.27517,60.45423 0.35879,62.89533 2.28562,66.72216 3.15069,6.25752 6.73513,7.74003 18.5132,7.65695 l 9.9868,-0.0704 v 10.91164 c 0,7.64904 -0.3738,11.14353 -1.25,11.68716 -2.277,1.41266 -31.86878,1.39101 -36.75,-0.0269 z"
     style="fill:#ffffff;fill-opacity:1" />
</svg>
