<?xml version="1.0" encoding="UTF-8" standalone="no"?>
<!-- Created with Inkscape (http://www.inkscape.org/) -->

<svg
   xmlns:dc="http://purl.org/dc/elements/1.1/"
   xmlns:cc="http://creativecommons.org/ns#"
   xmlns:rdf="http://www.w3.org/1999/02/22-rdf-syntax-ns#"
   xmlns:svg="http://www.w3.org/2000/svg"
   xmlns="http://www.w3.org/2000/svg"
   xmlns:sodipodi="http://sodipodi.sourceforge.net/DTD/sodipodi-0.dtd"
   xmlns:inkscape="http://www.inkscape.org/namespaces/inkscape"
   version="1.1"
   id="svg2"
   xml:space="preserve"
   width="431.18805"
   height="154.11879"
   viewBox="0 0 431.18805 154.11879"
   sodipodi:docname="tableau-logo-white.svg"
   inkscape:version="0.92.3 (2405546, 2018-03-11)"><metadata
     id="metadata8"><rdf:RDF><cc:Work
         rdf:about=""><dc:format>image/svg+xml</dc:format><dc:type
           rdf:resource="http://purl.org/dc/dcmitype/StillImage" /><dc:title></dc:title></cc:Work></rdf:RDF></metadata><defs
     id="defs6" /><sodipodi:namedview
     pagecolor="#ffffff"
     bordercolor="#666666"
     borderopacity="1"
     objecttolerance="10"
     gridtolerance="10"
     guidetolerance="10"
     inkscape:pageopacity="0"
     inkscape:pageshadow="2"
     inkscape:window-width="1711"
     inkscape:window-height="848"
     id="namedview4"
     showgrid="false"
     fit-margin-top="0"
     fit-margin-left="0"
     fit-margin-right="0"
     fit-margin-bottom="0"
     inkscape:zoom="2.1394513"
     inkscape:cx="228.46658"
     inkscape:cy="44.236621"
     inkscape:window-x="0"
     inkscape:window-y="34"
     inkscape:window-maximized="0"
     inkscape:current-layer="g10" /><g
     id="g10"
     inkscape:groupmode="layer"
     inkscape:label="tableau-logo"
     transform="matrix(0,1.3333333,1.3333333,0,1.9296906,-200.79787)"><g
       id="g869"
       transform="matrix(1.6027328,0,0,1.6027328,-160.43994,0.87231591)"
       style="stroke-width:0.62393433"><path
         d="m 228.0275,47.152732 v -10.08 h -10.92 v -3.84 h 10.92 v -10.08 h 3.84 v 10.08 h 10.92 v 3.84 h -10.92 v 10.08"
         style="fill:#e87a3c;fill-opacity:1;fill-rule:nonzero;stroke:none;stroke-width:0.07487211"
         id="path14"
         inkscape:connector-curvature="0" /><path
         d="m 245.9075,26.992732 v -9 h -9.84 v -3.36 h 9.84 v -9 h 2.88 v 9 h 9.84 v 3.36 h -9.84 v 9"
         style="fill:#c83543;fill-opacity:1;fill-rule:nonzero;stroke:none;stroke-width:0.07487211"
         id="path16"
         inkscape:connector-curvature="0" /><path
         d="m 210.8675,64.672732 v -9 h -9.84 v -3.36 h 9.84 v -9 h 3 v 9 h 9.72 v 3.36 h -9.72 v 9"
         style="fill:#608b9e;fill-opacity:1;fill-rule:nonzero;stroke:none;stroke-width:0.07487211"
         id="path18"
         inkscape:connector-curvature="0" /><path
         d="m 256.7075,42.712732 v -6 h -6.84 v -3 h 6.84 v -6.12 h 2.64 v 6.12 h 6.84 v 3 h -6.84 v 6"
         style="fill:#626c94;fill-opacity:1;fill-rule:nonzero;stroke:none;stroke-width:0.07487211"
         id="path20"
         inkscape:connector-curvature="0" /><path
         d="m 210.8675,26.992732 v -9.12 h -9.84 v -3.24 h 9.84 v -9 h 2.88 v 9 h 9.84 v 3.24 h -9.84 v 9.12"
         style="fill:#eb943c;fill-opacity:1;fill-rule:nonzero;stroke:none;stroke-width:0.07487211"
         id="path22"
         inkscape:connector-curvature="0" /><path
         d="m 228.6275,71.633212 v -6.12048 h -6.84 v -2.88 h 6.84 v -6.12 h 2.64 v 6.12 h 6.84 v 2.88 h -6.84 v 6.12048"
         style="fill:#626c94;fill-opacity:1;fill-rule:nonzero;stroke:none;stroke-width:0.07487211"
         id="path24"
         inkscape:connector-curvature="0" /><path
         d="m 245.9075,64.672732 v -9 h -9.84 v -3.36 h 9.84 v -9 h 2.88 v 9 h 9.84 v 3.36 h -9.84 v 9"
         style="fill:#344e82;fill-opacity:1;fill-rule:nonzero;stroke:none;stroke-width:0.07487211"
         id="path26"
         inkscape:connector-curvature="0" /><path
         d="m 200.7875,42.352732 v -6 h -6.72 v -2.28 h 6.72 v -6 h 2.04 v 6 h 6.72 v 2.28 h -6.72 v 6"
         style="fill:#759ca8;fill-opacity:1;fill-rule:nonzero;stroke:none;stroke-width:0.07487211"
         id="path28"
         inkscape:connector-curvature="0" /><path
         d="m 228.8675,12.832732 v -6 h -6.48 v -2.16 h 6.48 v -6.12 h 2.16 v 6.12 h 6.6 v 2.16 h -6.6 l -0.12,6"
         style="fill:#759ca8;fill-opacity:1;fill-rule:nonzero;stroke:none;stroke-width:0.07487211"
         id="path30"
         inkscape:connector-curvature="0" /></g><g
       id="g856"
       transform="matrix(0.70096828,0,0,0.70096828,46.97313,58.244268)"
       style="stroke-width:1.42659807"><path
         d="m 267.2675,104.51321 c 0.48,0.72 0.72,1.56 0.72,2.4 0,1.68 -0.84,2.76 -2.04,2.76 -0.84,0 -1.44,-0.36 -1.8,-0.96 -0.24,-0.48 -0.48,-1.08 -0.72,-1.68 -0.24,-0.72 -0.48,-0.96 -0.72,-0.96 -0.36,0 -0.6,0.36 -0.6,0.96 0,0.72 0.24,1.44 0.72,2.28 h -1.44 c -0.36,-0.72 -0.6,-1.56 -0.6,-2.28 0,-1.68 0.84,-2.64 2.04,-2.64 1.2,0 1.8,0.84 2.4,2.52 0.24,0.72 0.36,0.96 0.72,0.96 0.48,0 0.72,-0.36 0.72,-0.96 0,-0.84 -0.36,-1.56 -0.96,-2.4"
         style="fill:#ffffff;fill-opacity:0.96744187;fill-rule:nonzero;stroke:none;stroke-width:0.17119177"
         id="path32"
         inkscape:connector-curvature="0" /><path
         d="m 264.3875,138.35321 c 0.96,0 1.92,0.36 2.52,1.08 0.72,0.72 1.08,1.68 1.08,2.76 0,1.08 -0.36,1.92 -1.08,2.64 -0.6,0.72 -1.44,1.08 -2.52,1.08 -1.08,0 -1.92,-0.36 -2.64,-1.08 -0.6,-0.72 -0.96,-1.56 -0.96,-2.64 0,-1.08 0.36,-2.04 0.96,-2.76 0.72,-0.72 1.56,-1.08 2.64,-1.08 z m 0,1.8 c -1.2,0 -2.16,0.84 -2.16,2.04 0,1.08 0.96,1.92 2.16,1.92 1.2,0 2.16,-0.84 2.16,-1.92 0,-1.2 -0.96,-2.04 -2.16,-2.04"
         style="fill:#ffffff;fill-opacity:0.96744187;fill-rule:nonzero;stroke:none;stroke-width:0.17119177"
         id="path34"
         inkscape:connector-curvature="0" /><path
         d="m 267.8675,176.51321 v 1.68 h -2.88 v 2.64 h -1.32 v -2.64 h -1.44 v 2.76 h -1.32 v -4.44"
         style="fill:#ffffff;fill-opacity:0.96744187;fill-rule:nonzero;stroke:none;stroke-width:0.17119177"
         id="path36"
         inkscape:connector-curvature="0" /><path
         d="m 267.8675,213.23321 v 1.8 h -5.64 v 2.28 h -1.32 v -6.36 h 1.32 v 2.28"
         style="fill:#ffffff;fill-opacity:0.96744187;fill-rule:nonzero;stroke:none;stroke-width:0.17119177"
         id="path38"
         inkscape:connector-curvature="0" /><path
         d="m 267.8675,247.91321 v 0.72 l -4.32,1.56 4.32,1.56 v 0.72 l -6.96,2.88 v -1.8 l 3.84,-1.44 -3.84,-1.32 v -1.08 l 3.72,-1.44 -3.72,-1.32 v -1.8"
         style="fill:#ffffff;fill-opacity:0.96744187;fill-rule:nonzero;stroke:none;stroke-width:0.17119177"
         id="path40"
         inkscape:connector-curvature="0" /><path
         d="m 267.8675,281.39321 v 1.8 l -1.44,0.6 v 3 l 1.44,0.48 v 1.8 l -6.96,-2.64 v -2.04 z m -2.52,2.88 -2.64,1.08 2.64,0.96"
         style="fill:#ffffff;fill-opacity:0.96744187;fill-rule:nonzero;stroke:none;stroke-width:0.17119177"
         id="path42"
         inkscape:connector-curvature="0" /><path
         d="m 267.8675,317.15321 v 1.68 h -2.88 c 0,0 0,0.12 0,0.24 0,0.6 0.24,0.96 0.84,1.2 l 2.04,0.84 v 2.04 l -2.4,-1.2 c -0.48,-0.12 -0.72,-0.48 -0.84,-0.72 -0.36,0.84 -0.96,1.2 -1.68,1.2 -1.44,0 -2.04,-0.96 -2.04,-2.76 v -2.52 z m -4.08,2.52 v -0.84 h -1.68 v 0.84 c 0,0.6 0.36,0.96 0.84,0.96 0.6,0 0.84,-0.36 0.84,-0.96"
         style="fill:#ffffff;fill-opacity:0.96744187;fill-rule:nonzero;stroke:none;stroke-width:0.17119177"
         id="path44"
         inkscape:connector-curvature="0" /><path
         d="m 267.8675,351.71321 v 4.68 h -1.32 v -2.88 h -1.68 v 2.76 h -1.2 v -2.76 h -1.44 v 2.88 h -1.32 v -4.68"
         style="fill:#ffffff;fill-opacity:0.96744187;fill-rule:nonzero;stroke:none;stroke-width:0.17119177"
         id="path46"
         inkscape:connector-curvature="0" /><path
         d="m 224.3075,192.83321 c -0.84,2.4 -1.2,4.56 -1.2,5.88 0,6.72 4.8,11.28 12.24,11.28 7.68,0 12.12,-4.8 12.12,-13.2 0,-2.88 -0.48,-5.76 -1.56,-8.76 l -34.08,-0.24 v 5.04 z m 18.6,4.44 c 0,4.68 -2.76,7.44 -7.56,7.44 -4.68,0 -7.56,-2.76 -7.56,-6.96 0,-1.8 0.6,-3.6 1.2,-4.92 h 13.08 c 0.48,1.56 0.84,3.12 0.84,4.44"
         style="fill:#ffffff;fill-opacity:0.96744187;fill-rule:nonzero;stroke:none;stroke-width:0.17119177"
         id="path48"
         inkscape:connector-curvature="0" /><path
         d="m 251.7875,230.99321 v 5.04 h -44.76 v -5.04 z"
         style="fill:#ffffff;fill-opacity:0.96744187;fill-rule:nonzero;stroke:none;stroke-width:0.17119177"
         id="path50"
         inkscape:connector-curvature="0" /><path
         d="m 232.7075,263.63321 v 11.4 c -3.12,-0.12 -4.68,-1.68 -4.92,-4.68 -0.12,-2.88 1.8,-5.76 4.92,-6.72 z m 14.88,5.64 c -0.72,-7.68 -6.12,-11.52 -12.6,-11.28 -6.84,0.24 -11.76,4.8 -11.76,11.64 0,7.08 5.28,11.28 13.08,10.92 v -17.28 c 4.32,0.48 6.36,3 6.72,6.6 0.24,3 -0.48,7.08 -1.92,9.36 h 4.8 c 1.44,-3 2.04,-6 1.68,-9.96"
         style="fill:#ffffff;fill-opacity:0.96744187;fill-rule:nonzero;stroke:none;stroke-width:0.17119177"
         id="path52"
         inkscape:connector-curvature="0" /><path
         d="m 243.6275,354.59321 c 0,3.24 -1.56,5.4 -5.16,5.4 h -14.76 v 5.04 h 15.36 c 5.16,0 8.28,-4.08 8.28,-10.44 0,-6.36 -3.12,-10.32 -8.28,-10.32 h -15.36 v 5.04 h 14.76 c 3.6,0 5.16,2.16 5.16,5.28"
         style="fill:#ffffff;fill-opacity:0.96744187;fill-rule:nonzero;stroke:none;stroke-width:0.17119177"
         id="path54"
         inkscape:connector-curvature="0" /><path
         d="m 247.4675,154.55321 c 0.12,-8.4 -4.44,-13.2 -12.12,-13.2 -7.44,0 -12.24,4.56 -12.24,11.28 0,2.28 0.48,4.2 1.68,5.88 h -1.8 v 5.04 l 22.92,-0.12 c 0.96,-2.16 1.56,-5.64 1.56,-8.88 z m -4.56,-0.48 c 0,1.2 -0.12,2.52 -0.6,4.32 l -12.84,0.12 c -1.2,-1.68 -1.68,-3.24 -1.68,-4.92 0,-4.2 2.88,-6.96 7.56,-6.96 4.8,0 7.56,2.76 7.56,7.44"
         style="fill:#ffffff;fill-opacity:0.96744187;fill-rule:nonzero;stroke:none;stroke-width:0.17119177"
         id="path56"
         inkscape:connector-curvature="0" /><path
         d="m 247.4675,314.15321 c 0.12,-8.52 -4.44,-13.32 -12.12,-13.32 -7.44,0 -12.24,4.56 -12.24,11.28 0,2.28 0.48,4.2 1.68,5.88 h -1.8 v 5.04 l 22.92,-0.12 c 0.96,-2.16 1.56,-5.64 1.56,-8.76 z m -4.56,-0.6 c 0,1.08 -0.12,2.64 -0.6,4.32 l -12.84,0.12 c -1.2,-1.56 -1.68,-3.12 -1.68,-4.92 0,-4.2 2.88,-6.96 7.56,-6.96 4.8,0 7.56,2.76 7.56,7.44"
         style="fill:#ffffff;fill-opacity:0.96744187;fill-rule:nonzero;stroke:none;stroke-width:0.17119177"
         id="path58"
         inkscape:connector-curvature="0" /><path
         d="m 213.5075,103.79321 v 5.04 h 14.16 v 13.44 h 4.68 v -13.44 h 15.36 v -5.04 h -15.36 V 90.233212 h -4.68 v 13.559998"
         style="fill:#ffffff;fill-opacity:0.96744187;fill-rule:nonzero;stroke:none;stroke-width:0.17119177"
         id="path60"
         inkscape:connector-curvature="0" /><path
         d="m 223.4675,373.31321 c 0,1.68 1.32,2.88 3,2.88 1.68,0 3,-1.2 3,-2.88 0,-1.68 -1.32,-3 -3,-3 -1.68,0 -3,1.32 -3,3 z m 0.48,0 c 0,-1.32 1.08,-2.4 2.52,-2.4 1.44,0 2.52,1.08 2.52,2.4 0,1.32 -1.08,2.4 -2.52,2.4 -1.44,0 -2.52,-1.08 -2.52,-2.4 z m 4.2,-0.6 v -0.48 h -3.36 c 0,0.24 0,0.48 0,0.96 0,0.48 0.12,0.84 0.24,0.96 0.12,0.24 0.36,0.36 0.72,0.36 0.36,0 0.72,-0.36 0.72,-0.72 h 0.12 c 0,0.36 0.24,0.48 0.72,0.6 0.6,0.12 0.72,0.12 0.84,0.24 v -0.6 c -0.12,-0.12 -0.36,-0.12 -0.84,-0.24 -0.36,0 -0.6,-0.24 -0.6,-0.72 v -0.36 z m -1.8,0 v 0.36 c 0,0.48 -0.12,0.84 -0.6,0.84 -0.24,0 -0.6,-0.24 -0.6,-0.84 0,-0.12 0,-0.24 0,-0.36"
         style="fill:#ffffff;fill-opacity:0.96744187;fill-rule:nonzero;stroke:none;stroke-width:0.17119177"
         id="path62"
         inkscape:connector-curvature="0" /></g></g></svg>