<?xml version="1.0" encoding="UTF-8" standalone="no"?>
<!-- Created with Inkscape (http://www.inkscape.org/) -->

<svg
   xmlns:dc="http://purl.org/dc/elements/1.1/"
   xmlns:cc="http://creativecommons.org/ns#"
   xmlns:rdf="http://www.w3.org/1999/02/22-rdf-syntax-ns#"
   xmlns:svg="http://www.w3.org/2000/svg"
   xmlns="http://www.w3.org/2000/svg"
   xmlns:sodipodi="http://sodipodi.sourceforge.net/DTD/sodipodi-0.dtd"
   xmlns:inkscape="http://www.inkscape.org/namespaces/inkscape"
   version="1.1"
   id="svg2"
   xml:space="preserve"
   width="503.52063"
   height="98.559998"
   viewBox="0 0 503.52063 98.559998"
   sodipodi:docname="tableau-logo.svg"
   inkscape:version="0.92.3 (2405546, 2018-03-11)"><metadata
     id="metadata8"><rdf:RDF><cc:Work
         rdf:about=""><dc:format>image/svg+xml</dc:format><dc:type
           rdf:resource="http://purl.org/dc/dcmitype/StillImage" /><dc:title></dc:title></cc:Work></rdf:RDF></metadata><defs
     id="defs6" /><sodipodi:namedview
     pagecolor="#ffffff"
     bordercolor="#666666"
     borderopacity="1"
     objecttolerance="10"
     gridtolerance="10"
     guidetolerance="10"
     inkscape:pageopacity="0"
     inkscape:pageshadow="2"
     inkscape:window-width="1711"
     inkscape:window-height="848"
     id="namedview4"
     showgrid="false"
     fit-margin-top="0"
     fit-margin-left="0"
     fit-margin-right="0"
     fit-margin-bottom="0"
     inkscape:zoom="1.0697256"
     inkscape:cx="203.83113"
     inkscape:cy="40.171745"
     inkscape:window-x="0"
     inkscape:window-y="34"
     inkscape:window-maximized="0"
     inkscape:current-layer="g10" /><g
     id="g10"
     inkscape:groupmode="layer"
     inkscape:label="tableau-logo"
     transform="matrix(0,1.3333333,1.3333333,0,1.9296906,-258.75666)"><g
       id="g12"
       transform="matrix(0,0.12,-0.12,0,409.9871,-51.366788)"><path
         d="m 820.996,1516.33 h -84 v 91 h -32 v -91 h -84 v -32 h 84 v -91 h 32 v 91 h 84"
         style="fill:#e87a3c;fill-opacity:1;fill-rule:nonzero;stroke:none"
         id="path14"
         inkscape:connector-curvature="0" /><path
         d="m 652.996,1367.33 h -75 v 82 h -28 v -82 h -75 v -24 h 75 v -82 h 28 v 82 h 75"
         style="fill:#c83543;fill-opacity:1;fill-rule:nonzero;stroke:none"
         id="path16"
         inkscape:connector-curvature="0" /><path
         d="m 966.996,1659.33 h -75 v 82 h -28 v -82 h -75 v -25 h 75 v -81 h 28 v 81 h 75"
         style="fill:#608b9e;fill-opacity:1;fill-rule:nonzero;stroke:none"
         id="path18"
         inkscape:connector-curvature="0" /><path
         d="m 783.996,1277.33 h -50 v 57 h -25 v -57 h -51 v -22 h 51 v -57 h 25 v 57 h 50"
         style="fill:#626c94;fill-opacity:1;fill-rule:nonzero;stroke:none"
         id="path20"
         inkscape:connector-curvature="0" /><path
         d="m 652.996,1659.33 h -76 v 82 h -27 v -82 h -75 v -24 h 75 v -82 h 27 v 82 h 76"
         style="fill:#eb943c;fill-opacity:1;fill-rule:nonzero;stroke:none"
         id="path22"
         inkscape:connector-curvature="0" /><path
         d="m 1025,1511.33 h -51.004 v 57 h -24 v -57 h -51 v -22 h 51 v -57 h 24 v 57 H 1025"
         style="fill:#626c94;fill-opacity:1;fill-rule:nonzero;stroke:none"
         id="path24"
         inkscape:connector-curvature="0" /><path
         d="m 966.996,1367.33 h -75 v 82 h -28 v -82 h -75 v -24 h 75 v -82 h 28 v 82 h 75"
         style="fill:#344e82;fill-opacity:1;fill-rule:nonzero;stroke:none"
         id="path26"
         inkscape:connector-curvature="0" /><path
         d="m 780.996,1743.33 h -50 v 56 h -19 v -56 h -50 v -17 h 50 v -56 h 19 v 56 h 50"
         style="fill:#759ca8;fill-opacity:1;fill-rule:nonzero;stroke:none"
         id="path28"
         inkscape:connector-curvature="0" /><path
         d="m 534.996,1509.33 h -50 v 54 h -18 v -54 h -51 v -18 h 51 v -55 h 18 v 55 l 50,1"
         style="fill:#759ca8;fill-opacity:1;fill-rule:nonzero;stroke:none"
         id="path30"
         inkscape:connector-curvature="0" /><path
         d="m 1299,1189.33 c 6,-4 13,-6 20,-6 14,0 23,7 23,17 0,7 -3,12 -8,15 -4,2 -9,4 -14,6 -6,2 -8,4 -8,6 0,3 3,5 8,5 6,0 12,-2 19,-6 v 12 c -6,3 -13,5 -19,5 -14,0 -22,-7 -22,-17 0,-10 7,-15 21,-20 6,-2 8,-3 8,-6 0,-4 -3,-6 -8,-6 -7,0 -13,3 -20,8"
         style="fill:#608b9e;fill-opacity:1;fill-rule:nonzero;stroke:none"
         id="path32"
         inkscape:connector-curvature="0" /><path
         d="m 1581,1213.33 c 0,-8 3,-16 9,-21 6,-6 14,-9 23,-9 9,0 16,3 22,9 6,5 9,12 9,21 0,9 -3,16 -9,22 -6,5 -13,8 -22,8 -9,0 -17,-3 -23,-8 -6,-6 -9,-13 -9,-22 z m 15,0 c 0,10 7,18 17,18 9,0 16,-8 16,-18 0,-10 -7,-18 -16,-18 -10,0 -17,8 -17,18"
         style="fill:#608b9e;fill-opacity:1;fill-rule:nonzero;stroke:none"
         id="path34"
         inkscape:connector-curvature="0" /><path
         d="m 1899,1184.33 h 14 v 24 h 22 v 11 h -22 v 12 h 23 v 11 h -37"
         style="fill:#608b9e;fill-opacity:1;fill-rule:nonzero;stroke:none"
         id="path36"
         inkscape:connector-curvature="0" /><path
         d="m 2205,1184.33 h 15 v 47 h 19 v 11 h -53 v -11 h 19"
         style="fill:#608b9e;fill-opacity:1;fill-rule:nonzero;stroke:none"
         id="path38"
         inkscape:connector-curvature="0" /><path
         d="m 2494,1184.33 h 6 l 13,36 13,-36 h 6 l 24,58 h -15 l -12,-32 -11,32 h -9 l -12,-31 -11,31 h -15"
         style="fill:#608b9e;fill-opacity:1;fill-rule:nonzero;stroke:none"
         id="path40"
         inkscape:connector-curvature="0" /><path
         d="m 2773,1184.33 h 15 l 5,12 h 25 l 4,-12 h 15 l -22,58 h -17 z m 24,21 9,22 8,-22"
         style="fill:#608b9e;fill-opacity:1;fill-rule:nonzero;stroke:none"
         id="path42"
         inkscape:connector-curvature="0" /><path
         d="m 3071,1184.33 h 14 v 24 c 0,0 1,0 2,0 5,0 8,-2 10,-7 l 7,-17 h 17 l -10,20 c -1,4 -4,6 -6,7 7,3 10,8 10,14 0,12 -8,17 -23,17 h -21 z m 21,34 h -7 v 14 h 7 c 5,0 8,-3 8,-7 0,-5 -3,-7 -8,-7"
         style="fill:#608b9e;fill-opacity:1;fill-rule:nonzero;stroke:none"
         id="path44"
         inkscape:connector-curvature="0" /><path
         d="m 3359,1184.33 h 39 v 11 h -24 v 14 h 23 v 10 h -23 v 12 h 24 v 11 h -39"
         style="fill:#608b9e;fill-opacity:1;fill-rule:nonzero;stroke:none"
         id="path46"
         inkscape:connector-curvature="0" /><path
         d="m 2035,1547.33 c 20,7 38,10 49,10 56,0 94,-40 94,-102 0,-64 -40,-101 -110,-101 -24,0 -48,4 -73,13 l -2,284 h 42 z m 37,-155 c 39,0 62,23 62,63 0,39 -23,63 -58,63 -15,0 -30,-5 -41,-10 v -109 c 13,-4 26,-7 37,-7"
         style="fill:#344e82;fill-opacity:1;fill-rule:nonzero;stroke:none"
         id="path48"
         inkscape:connector-curvature="0" /><path
         d="m 2353,1318.33 h 42 v 373 h -42 z"
         style="fill:#344e82;fill-opacity:1;fill-rule:nonzero;stroke:none"
         id="path50"
         inkscape:connector-curvature="0" /><path
         d="m 2625,1477.33 h 95 c -1,26 -14,39 -39,41 -24,1 -48,-15 -56,-41 z m 47,-124 c -64,6 -96,51 -94,105 2,57 40,98 97,98 59,0 94,-44 91,-109 h -144 c 4,-36 25,-53 55,-56 25,-2 59,4 78,16 v -40 c -25,-12 -50,-17 -83,-14"
         style="fill:#344e82;fill-opacity:1;fill-rule:nonzero;stroke:none"
         id="path52"
         inkscape:connector-curvature="0" /><path
         d="m 3383,1386.33 c 27,0 45,13 45,43 v 123 h 42 v -128 c 0,-43 -34,-69 -87,-69 -53,0 -86,26 -86,69 v 128 h 42 v -123 c 0,-30 18,-43 44,-43"
         style="fill:#344e82;fill-opacity:1;fill-rule:nonzero;stroke:none"
         id="path54"
         inkscape:connector-curvature="0" /><path
         d="m 1716,1354.33 c -70,-1 -110,37 -110,101 0,62 38,102 94,102 19,0 35,-4 49,-14 v 15 h 42 l -1,-191 c -18,-8 -47,-13 -74,-13 z m -4,38 c 10,0 21,1 36,5 l 1,107 c -14,10 -27,14 -41,14 -35,0 -58,-24 -58,-63 0,-40 23,-63 62,-63"
         style="fill:#344e82;fill-opacity:1;fill-rule:nonzero;stroke:none"
         id="path56"
         inkscape:connector-curvature="0" /><path
         d="m 3046,1354.33 c -71,-1 -111,37 -111,101 0,62 38,102 94,102 19,0 35,-4 49,-14 v 15 h 42 l -1,-191 c -18,-8 -47,-13 -73,-13 z m -5,38 c 9,0 22,1 36,5 l 1,107 c -13,10 -26,14 -41,14 -35,0 -58,-24 -58,-63 0,-40 23,-63 62,-63"
         style="fill:#344e82;fill-opacity:1;fill-rule:nonzero;stroke:none"
         id="path58"
         inkscape:connector-curvature="0" /><path
         d="m 1293,1637.33 h 42 v -118 h 112 v -39 h -112 v -128 h -42 v 128 h -113 v 39 h 113"
         style="fill:#344e82;fill-opacity:1;fill-rule:nonzero;stroke:none"
         id="path60"
         inkscape:connector-curvature="0" /><path
         d="m 3539,1554.33 c 14,0 24,-11 24,-25 0,-14 -10,-25 -24,-25 -14,0 -25,11 -25,25 0,14 11,25 25,25 z m 0,-4 c -11,0 -20,-9 -20,-21 0,-12 9,-21 20,-21 11,0 20,9 20,21 0,12 -9,21 -20,21 z m -5,-35 h -4 v 28 c 2,0 4,0 8,0 4,0 7,-1 8,-2 2,-1 3,-3 3,-6 0,-3 -3,-6 -6,-6 v -1 c 3,0 4,-2 5,-6 1,-5 1,-6 2,-7 h -5 c -1,1 -1,3 -2,7 0,3 -2,5 -6,5 h -3 z m 0,15 h 3 c 4,0 7,1 7,5 0,2 -2,5 -7,5 -1,0 -2,0 -3,0"
         style="fill:#344e82;fill-opacity:1;fill-rule:nonzero;stroke:none"
         id="path62"
         inkscape:connector-curvature="0" /></g></g></svg>